%TF.GenerationSoftware,KiCad,Pcbnew,9.0.4*%
%TF.CreationDate,2025-10-19T21:38:03+02:00*%
%TF.ProjectId,3v-switching-voltage-regulator,33762d73-7769-4746-9368-696e672d766f,rev?*%
%TF.SameCoordinates,Original*%
%TF.FileFunction,Copper,L1,Top*%
%TF.FilePolarity,Positive*%
%FSLAX46Y46*%
G04 Gerber Fmt 4.6, Leading zero omitted, Abs format (unit mm)*
G04 Created by KiCad (PCBNEW 9.0.4) date 2025-10-19 21:38:03*
%MOMM*%
%LPD*%
G01*
G04 APERTURE LIST*
G04 Aperture macros list*
%AMRoundRect*
0 Rectangle with rounded corners*
0 $1 Rounding radius*
0 $2 $3 $4 $5 $6 $7 $8 $9 X,Y pos of 4 corners*
0 Add a 4 corners polygon primitive as box body*
4,1,4,$2,$3,$4,$5,$6,$7,$8,$9,$2,$3,0*
0 Add four circle primitives for the rounded corners*
1,1,$1+$1,$2,$3*
1,1,$1+$1,$4,$5*
1,1,$1+$1,$6,$7*
1,1,$1+$1,$8,$9*
0 Add four rect primitives between the rounded corners*
20,1,$1+$1,$2,$3,$4,$5,0*
20,1,$1+$1,$4,$5,$6,$7,0*
20,1,$1+$1,$6,$7,$8,$9,0*
20,1,$1+$1,$8,$9,$2,$3,0*%
G04 Aperture macros list end*
%TA.AperFunction,SMDPad,CuDef*%
%ADD10RoundRect,0.250000X0.650000X-0.325000X0.650000X0.325000X-0.650000X0.325000X-0.650000X-0.325000X0*%
%TD*%
%TA.AperFunction,SMDPad,CuDef*%
%ADD11RoundRect,0.250000X-0.325000X-0.650000X0.325000X-0.650000X0.325000X0.650000X-0.325000X0.650000X0*%
%TD*%
%TA.AperFunction,SMDPad,CuDef*%
%ADD12RoundRect,0.250000X0.625000X-0.312500X0.625000X0.312500X-0.625000X0.312500X-0.625000X-0.312500X0*%
%TD*%
%TA.AperFunction,SMDPad,CuDef*%
%ADD13RoundRect,0.250000X0.312500X0.625000X-0.312500X0.625000X-0.312500X-0.625000X0.312500X-0.625000X0*%
%TD*%
%TA.AperFunction,SMDPad,CuDef*%
%ADD14RoundRect,0.250000X-0.312500X-0.625000X0.312500X-0.625000X0.312500X0.625000X-0.312500X0.625000X0*%
%TD*%
%TA.AperFunction,SMDPad,CuDef*%
%ADD15RoundRect,0.250000X-0.625000X0.312500X-0.625000X-0.312500X0.625000X-0.312500X0.625000X0.312500X0*%
%TD*%
%TA.AperFunction,SMDPad,CuDef*%
%ADD16RoundRect,0.250000X0.325000X0.650000X-0.325000X0.650000X-0.325000X-0.650000X0.325000X-0.650000X0*%
%TD*%
%TA.AperFunction,SMDPad,CuDef*%
%ADD17RoundRect,0.175000X-0.425000X0.175000X-0.425000X-0.175000X0.425000X-0.175000X0.425000X0.175000X0*%
%TD*%
%TA.AperFunction,SMDPad,CuDef*%
%ADD18RoundRect,0.190000X0.410000X-0.190000X0.410000X0.190000X-0.410000X0.190000X-0.410000X-0.190000X0*%
%TD*%
%TA.AperFunction,SMDPad,CuDef*%
%ADD19RoundRect,0.200000X0.400000X-0.200000X0.400000X0.200000X-0.400000X0.200000X-0.400000X-0.200000X0*%
%TD*%
%TA.AperFunction,SMDPad,CuDef*%
%ADD20RoundRect,0.175000X0.425000X-0.175000X0.425000X0.175000X-0.425000X0.175000X-0.425000X-0.175000X0*%
%TD*%
%TA.AperFunction,SMDPad,CuDef*%
%ADD21RoundRect,0.190000X-0.410000X0.190000X-0.410000X-0.190000X0.410000X-0.190000X0.410000X0.190000X0*%
%TD*%
%TA.AperFunction,SMDPad,CuDef*%
%ADD22RoundRect,0.200000X-0.400000X0.200000X-0.400000X-0.200000X0.400000X-0.200000X0.400000X0.200000X0*%
%TD*%
%TA.AperFunction,HeatsinkPad*%
%ADD23O,1.700000X1.100000*%
%TD*%
%TA.AperFunction,ComponentPad*%
%ADD24R,1.700000X1.700000*%
%TD*%
%TA.AperFunction,ComponentPad*%
%ADD25C,1.700000*%
%TD*%
%TA.AperFunction,SMDPad,CuDef*%
%ADD26RoundRect,0.250002X-1.799998X-1.799998X1.799998X-1.799998X1.799998X1.799998X-1.799998X1.799998X0*%
%TD*%
%TA.AperFunction,SMDPad,CuDef*%
%ADD27RoundRect,0.250000X-0.625000X0.375000X-0.625000X-0.375000X0.625000X-0.375000X0.625000X0.375000X0*%
%TD*%
%TA.AperFunction,SMDPad,CuDef*%
%ADD28RoundRect,0.162000X-0.138000X0.823000X-0.138000X-0.823000X0.138000X-0.823000X0.138000X0.823000X0*%
%TD*%
%TA.AperFunction,SMDPad,CuDef*%
%ADD29R,3.300000X2.410000*%
%TD*%
%TA.AperFunction,ViaPad*%
%ADD30C,0.800000*%
%TD*%
%TA.AperFunction,Conductor*%
%ADD31C,1.000000*%
%TD*%
%TA.AperFunction,Conductor*%
%ADD32C,0.500000*%
%TD*%
G04 APERTURE END LIST*
D10*
%TO.P,C7,1*%
%TO.N,Net-(U1-COMP)*%
X94919800Y-45112200D03*
%TO.P,C7,2*%
%TO.N,GND*%
X94919800Y-42162200D03*
%TD*%
D11*
%TO.P,C6,1*%
%TO.N,VIN*%
X100050000Y-61500000D03*
%TO.P,C6,2*%
%TO.N,GND*%
X103000000Y-61500000D03*
%TD*%
D12*
%TO.P,R4,1*%
%TO.N,EN*%
X99771200Y-45099700D03*
%TO.P,R4,2*%
%TO.N,GND*%
X99771200Y-42174700D03*
%TD*%
D13*
%TO.P,R1,1*%
%TO.N,Net-(U1-FB)*%
X95239300Y-50977800D03*
%TO.P,R1,2*%
%TO.N,Vout3.3*%
X92314300Y-50977800D03*
%TD*%
D14*
%TO.P,R2,1*%
%TO.N,GND*%
X92288900Y-48361600D03*
%TO.P,R2,2*%
%TO.N,Net-(U1-FB)*%
X95213900Y-48361600D03*
%TD*%
D15*
%TO.P,R5,1*%
%TO.N,VIN*%
X102082600Y-42174700D03*
%TO.P,R5,2*%
%TO.N,EN*%
X102082600Y-45099700D03*
%TD*%
D10*
%TO.P,C4,1*%
%TO.N,Net-(U1-BST)*%
X104876600Y-55607800D03*
%TO.P,C4,2*%
%TO.N,SW*%
X104876600Y-52657800D03*
%TD*%
D13*
%TO.P,R3,1*%
%TO.N,Net-(C3-Pad2)*%
X97462500Y-39750000D03*
%TO.P,R3,2*%
%TO.N,GND*%
X94537500Y-39750000D03*
%TD*%
%TO.P,R6,1*%
%TO.N,Net-(U1-FREQ)*%
X97212500Y-56500000D03*
%TO.P,R6,2*%
%TO.N,GND*%
X94287500Y-56500000D03*
%TD*%
D16*
%TO.P,C2,1*%
%TO.N,Vout3.3*%
X116225000Y-56500000D03*
%TO.P,C2,2*%
%TO.N,GND*%
X113275000Y-56500000D03*
%TD*%
D11*
%TO.P,C1,1*%
%TO.N,VIN*%
X100050000Y-59112400D03*
%TO.P,C1,2*%
%TO.N,GND*%
X103000000Y-59112400D03*
%TD*%
D17*
%TO.P,J1,A5,CC1*%
%TO.N,unconnected-(J1-CC1-PadA5)*%
X87830000Y-51288600D03*
D18*
%TO.P,J1,A9,VBUS*%
%TO.N,VIN*%
X87830000Y-53308600D03*
D19*
%TO.P,J1,A12,GND*%
%TO.N,GND*%
X87830000Y-54538600D03*
D20*
%TO.P,J1,B5,CC2*%
%TO.N,unconnected-(J1-CC2-PadB5)*%
X87830000Y-52288600D03*
D21*
%TO.P,J1,B9,VBUS*%
%TO.N,VIN*%
X87830000Y-50268600D03*
D22*
%TO.P,J1,B12,GND*%
%TO.N,GND*%
X87830000Y-49038600D03*
D23*
%TO.P,J1,S1,SHIELD*%
%TO.N,unconnected-(J1-SHIELD-PadS1)_1*%
X87750000Y-47468600D03*
%TO.N,unconnected-(J1-SHIELD-PadS1)_3*%
X83950000Y-47468600D03*
%TO.N,unconnected-(J1-SHIELD-PadS1)*%
X87750000Y-56108600D03*
%TO.N,unconnected-(J1-SHIELD-PadS1)_2*%
X83950000Y-56108600D03*
%TD*%
D24*
%TO.P,INPUT,1,Pin_1*%
%TO.N,VIN*%
X91540000Y-61750000D03*
D25*
%TO.P,INPUT,2,Pin_2*%
%TO.N,GND*%
X89000000Y-61750000D03*
%TD*%
D24*
%TO.P,J2,1,Pin_1*%
%TO.N,Vout3.3*%
X117750000Y-50000000D03*
D25*
%TO.P,J2,2,Pin_2*%
%TO.N,GND*%
X117750000Y-52540000D03*
%TD*%
D26*
%TO.P,L1,1,1*%
%TO.N,SW*%
X107750000Y-42000000D03*
%TO.P,L1,2,2*%
%TO.N,Vout3.3*%
X117250000Y-42000000D03*
%TD*%
D27*
%TO.P,D1,1,K*%
%TO.N,SW*%
X108889800Y-52752800D03*
%TO.P,D1,2,A*%
%TO.N,GND*%
X108889800Y-55552800D03*
%TD*%
D10*
%TO.P,C3,1*%
%TO.N,Net-(U1-COMP)*%
X97332800Y-45112200D03*
%TO.P,C3,2*%
%TO.N,Net-(C3-Pad2)*%
X97332800Y-42162200D03*
%TD*%
D28*
%TO.P,U1,1,SW*%
%TO.N,SW*%
X101346000Y-48872600D03*
%TO.P,U1,2,EN*%
%TO.N,EN*%
X100076000Y-48872600D03*
%TO.P,U1,3,COMP*%
%TO.N,Net-(U1-COMP)*%
X98806000Y-48872600D03*
%TO.P,U1,4,FB*%
%TO.N,Net-(U1-FB)*%
X97536000Y-48872600D03*
%TO.P,U1,5,GND*%
%TO.N,GND*%
X97536000Y-53822600D03*
%TO.P,U1,6,FREQ*%
%TO.N,Net-(U1-FREQ)*%
X98806000Y-53822600D03*
%TO.P,U1,7,VIN*%
%TO.N,VIN*%
X100076000Y-53822600D03*
%TO.P,U1,8,BST*%
%TO.N,Net-(U1-BST)*%
X101346000Y-53822600D03*
D29*
%TO.P,U1,9,GND*%
%TO.N,GND*%
X99441000Y-51347600D03*
%TD*%
D30*
%TO.N,VIN*%
X100000000Y-57000000D03*
X102250000Y-40750000D03*
%TO.N,GND*%
X90750000Y-43500000D03*
X111750000Y-56500000D03*
X89750000Y-43500000D03*
X88750000Y-42500000D03*
X88750000Y-44500000D03*
X90750000Y-42500000D03*
X111750000Y-57500000D03*
X111750000Y-55500000D03*
X89750000Y-44500000D03*
X90750000Y-44500000D03*
X89750000Y-42500000D03*
X88750000Y-43500000D03*
%TO.N,Vout3.3*%
X116250000Y-55000000D03*
X92250000Y-52750000D03*
%TD*%
D31*
%TO.N,VIN*%
X102082600Y-42174700D02*
X102082600Y-40917400D01*
D32*
X87230000Y-50268600D02*
X86500000Y-50998600D01*
D31*
X102082600Y-40917400D02*
X102250000Y-40750000D01*
D32*
X86500000Y-52578600D02*
X87230000Y-53308600D01*
X88000000Y-58750000D02*
X89500000Y-58750000D01*
X86500000Y-50998600D02*
X86500000Y-52578600D01*
X87230000Y-53308600D02*
X87830000Y-53308600D01*
X86000000Y-56750000D02*
X88000000Y-58750000D01*
X86500000Y-52578600D02*
X86000000Y-53078600D01*
X86000000Y-53078600D02*
X86000000Y-56750000D01*
X87830000Y-50268600D02*
X87230000Y-50268600D01*
%TO.N,Net-(C3-Pad2)*%
X97332800Y-42162200D02*
X97332800Y-39879700D01*
X97332800Y-39879700D02*
X97462500Y-39750000D01*
%TO.N,Net-(U1-COMP)*%
X98806000Y-46585400D02*
X97332800Y-45112200D01*
X98806000Y-48872600D02*
X98806000Y-46585400D01*
X97332800Y-45112200D02*
X94919800Y-45112200D01*
D31*
%TO.N,Net-(U1-BST)*%
X102107800Y-55607800D02*
X104876600Y-55607800D01*
X101346000Y-53822600D02*
X101346000Y-54846000D01*
X101346000Y-54846000D02*
X102107800Y-55607800D01*
D32*
%TO.N,Vout3.3*%
X92250000Y-52750000D02*
X92250000Y-51042100D01*
X92250000Y-51042100D02*
X92314300Y-50977800D01*
%TO.N,EN*%
X100341150Y-46841150D02*
X102082600Y-45099700D01*
X100341150Y-45669650D02*
X99771200Y-45099700D01*
X100076000Y-48872600D02*
X100076000Y-47106300D01*
X100076000Y-47106300D02*
X100341150Y-46841150D01*
X100341150Y-46841150D02*
X100341150Y-45669650D01*
D31*
%TO.N,Net-(U1-FREQ)*%
X98806000Y-54906500D02*
X98806000Y-53822600D01*
X97212500Y-56500000D02*
X98806000Y-54906500D01*
D32*
%TO.N,Net-(U1-FB)*%
X95239300Y-50977800D02*
X95239300Y-48387000D01*
X97536000Y-48872600D02*
X95724900Y-48872600D01*
X95724900Y-48872600D02*
X95213900Y-48361600D01*
X95239300Y-48387000D02*
X95213900Y-48361600D01*
%TD*%
%TA.AperFunction,Conductor*%
%TO.N,GND*%
G36*
X99507441Y-36769685D02*
G01*
X99537230Y-36796538D01*
X100472828Y-37966035D01*
X100499336Y-38030681D01*
X100500000Y-38043497D01*
X100500000Y-42323638D01*
X100480315Y-42390677D01*
X100463681Y-42411319D01*
X100161319Y-42713681D01*
X100099996Y-42747166D01*
X100073638Y-42750000D01*
X99051362Y-42750000D01*
X98984323Y-42730315D01*
X98963681Y-42713681D01*
X98769618Y-42519618D01*
X98736133Y-42458295D01*
X98733299Y-42431944D01*
X98733299Y-41787192D01*
X98722799Y-41684403D01*
X98667614Y-41517866D01*
X98575512Y-41368544D01*
X98536319Y-41329351D01*
X98502834Y-41268028D01*
X98500000Y-41241670D01*
X98500000Y-40593070D01*
X98506294Y-40554066D01*
X98514999Y-40527797D01*
X98525500Y-40425009D01*
X98525499Y-39074992D01*
X98514999Y-38972203D01*
X98459814Y-38805666D01*
X98367712Y-38656344D01*
X98243656Y-38532288D01*
X98094334Y-38440186D01*
X97927797Y-38385001D01*
X97927795Y-38385000D01*
X97825010Y-38374500D01*
X97099998Y-38374500D01*
X97099980Y-38374501D01*
X96997203Y-38385000D01*
X96997200Y-38385001D01*
X96830668Y-38440185D01*
X96830659Y-38440189D01*
X96763621Y-38481539D01*
X96698525Y-38500000D01*
X96437499Y-38500000D01*
X95750000Y-39187499D01*
X95750000Y-42386138D01*
X95730315Y-42453177D01*
X95713681Y-42473819D01*
X95473819Y-42713681D01*
X95412496Y-42747166D01*
X95386138Y-42750000D01*
X93499999Y-42750000D01*
X92750000Y-43499999D01*
X92750000Y-49026763D01*
X92730315Y-49093802D01*
X92713681Y-49114444D01*
X92364444Y-49463681D01*
X92303121Y-49497166D01*
X92276763Y-49500000D01*
X91062499Y-49500000D01*
X90500000Y-50062499D01*
X90500000Y-52000000D01*
X91000000Y-52500000D01*
X91230492Y-52500000D01*
X91297531Y-52519685D01*
X91343286Y-52572489D01*
X91353230Y-52641647D01*
X91352109Y-52648193D01*
X91349500Y-52661308D01*
X91349500Y-52838695D01*
X91384103Y-53012658D01*
X91384106Y-53012667D01*
X91451983Y-53176540D01*
X91451990Y-53176553D01*
X91550535Y-53324034D01*
X91550538Y-53324038D01*
X91675961Y-53449461D01*
X91675965Y-53449464D01*
X91823446Y-53548009D01*
X91823459Y-53548016D01*
X91946363Y-53598923D01*
X91987334Y-53615894D01*
X91987336Y-53615894D01*
X91987341Y-53615896D01*
X92161304Y-53650499D01*
X92161307Y-53650500D01*
X92161309Y-53650500D01*
X92338693Y-53650500D01*
X92338694Y-53650499D01*
X92396682Y-53638964D01*
X92512658Y-53615896D01*
X92512661Y-53615894D01*
X92512666Y-53615894D01*
X92676547Y-53548013D01*
X92824035Y-53449464D01*
X92949464Y-53324035D01*
X93048013Y-53176547D01*
X93115894Y-53012666D01*
X93117483Y-53004682D01*
X93138964Y-52896682D01*
X93150500Y-52838691D01*
X93150500Y-52661309D01*
X93147891Y-52648192D01*
X93154117Y-52578602D01*
X93196979Y-52523424D01*
X93262869Y-52500178D01*
X93269508Y-52500000D01*
X95890625Y-52500000D01*
X96250000Y-52140625D01*
X96250000Y-51901746D01*
X96256293Y-51862745D01*
X96291799Y-51755597D01*
X96302300Y-51652809D01*
X96302299Y-51061559D01*
X96321983Y-50994522D01*
X96338609Y-50973890D01*
X96983744Y-50328755D01*
X97045063Y-50295273D01*
X97114755Y-50300257D01*
X97122324Y-50303369D01*
X97124097Y-50304167D01*
X97124104Y-50304171D01*
X97277704Y-50352034D01*
X97344454Y-50358100D01*
X97344457Y-50358100D01*
X97727543Y-50358100D01*
X97727546Y-50358100D01*
X97794296Y-50352034D01*
X97947896Y-50304171D01*
X98007923Y-50267882D01*
X98024178Y-50263351D01*
X98037138Y-50255023D01*
X98072073Y-50250000D01*
X98269927Y-50250000D01*
X98334076Y-50267882D01*
X98394104Y-50304171D01*
X98547704Y-50352034D01*
X98614454Y-50358100D01*
X98614457Y-50358100D01*
X98997543Y-50358100D01*
X98997546Y-50358100D01*
X99064296Y-50352034D01*
X99217896Y-50304171D01*
X99277923Y-50267882D01*
X99294178Y-50263351D01*
X99307138Y-50255023D01*
X99342073Y-50250000D01*
X99539927Y-50250000D01*
X99604076Y-50267882D01*
X99664104Y-50304171D01*
X99817704Y-50352034D01*
X99884454Y-50358100D01*
X99884457Y-50358100D01*
X100267543Y-50358100D01*
X100267546Y-50358100D01*
X100334296Y-50352034D01*
X100487896Y-50304171D01*
X100487899Y-50304169D01*
X100492938Y-50302599D01*
X100495990Y-50302548D01*
X100498607Y-50300980D01*
X100530693Y-50301977D01*
X100562798Y-50301449D01*
X100566311Y-50303084D01*
X100568443Y-50303151D01*
X100600077Y-50318803D01*
X100696251Y-50384922D01*
X100740341Y-50439120D01*
X100750000Y-50487102D01*
X100750000Y-52198637D01*
X100730315Y-52265676D01*
X100713681Y-52286319D01*
X100631913Y-52368086D01*
X100570589Y-52401570D01*
X100500898Y-52396586D01*
X100493341Y-52393480D01*
X100487897Y-52391029D01*
X100402124Y-52364301D01*
X100334296Y-52343166D01*
X100334294Y-52343165D01*
X100334292Y-52343165D01*
X100287559Y-52338918D01*
X100267546Y-52337100D01*
X99884454Y-52337100D01*
X99866259Y-52338753D01*
X99817707Y-52343165D01*
X99664103Y-52391029D01*
X99587703Y-52437215D01*
X99526423Y-52474261D01*
X99526421Y-52474262D01*
X99520004Y-52478142D01*
X99519203Y-52476817D01*
X99505453Y-52482292D01*
X99485715Y-52494977D01*
X99466747Y-52497704D01*
X99462338Y-52499460D01*
X99450780Y-52500000D01*
X99431220Y-52500000D01*
X99364181Y-52480315D01*
X99356150Y-52474608D01*
X99355578Y-52474262D01*
X99355577Y-52474261D01*
X99217896Y-52391029D01*
X99064296Y-52343166D01*
X99064294Y-52343165D01*
X99064292Y-52343165D01*
X99017559Y-52338918D01*
X98997546Y-52337100D01*
X98614454Y-52337100D01*
X98596259Y-52338753D01*
X98547707Y-52343165D01*
X98394103Y-52391029D01*
X98256419Y-52474263D01*
X98142663Y-52588019D01*
X98142662Y-52588021D01*
X98094051Y-52668431D01*
X98075616Y-52691960D01*
X97750000Y-53017577D01*
X97750000Y-54496217D01*
X97730315Y-54563256D01*
X97713681Y-54583898D01*
X97333898Y-54963681D01*
X97272575Y-54997166D01*
X97246217Y-55000000D01*
X96031249Y-55000000D01*
X94750000Y-56281249D01*
X94750000Y-57073638D01*
X94730315Y-57140677D01*
X94713681Y-57161319D01*
X94411319Y-57463681D01*
X94349996Y-57497166D01*
X94323638Y-57500000D01*
X89797455Y-57500000D01*
X89730416Y-57480315D01*
X89709774Y-57463681D01*
X89286319Y-57040226D01*
X89252834Y-56978903D01*
X89250000Y-56952545D01*
X89250000Y-55515625D01*
X88734375Y-55000000D01*
X87238862Y-55000000D01*
X87209421Y-54991355D01*
X87179435Y-54984832D01*
X87174419Y-54981077D01*
X87171823Y-54980315D01*
X87151181Y-54963681D01*
X87036319Y-54848819D01*
X87002834Y-54787496D01*
X87000000Y-54761138D01*
X87000000Y-54301362D01*
X87019685Y-54234323D01*
X87036312Y-54213687D01*
X87068244Y-54181755D01*
X87129563Y-54148272D01*
X87192813Y-54151053D01*
X87294620Y-54182777D01*
X87364199Y-54189100D01*
X88295800Y-54189099D01*
X88295808Y-54189099D01*
X88365375Y-54182778D01*
X88365378Y-54182777D01*
X88365380Y-54182777D01*
X88525471Y-54132891D01*
X88668972Y-54046142D01*
X88787542Y-53927572D01*
X88874291Y-53784071D01*
X88924177Y-53623980D01*
X88930500Y-53554401D01*
X88930499Y-53062800D01*
X88930499Y-53062791D01*
X88924178Y-52993223D01*
X88924176Y-52993216D01*
X88904042Y-52928606D01*
X88874291Y-52833129D01*
X88874290Y-52833127D01*
X88872162Y-52826298D01*
X88871010Y-52756438D01*
X88873316Y-52750043D01*
X88873281Y-52750032D01*
X88905015Y-52648193D01*
X88924315Y-52586257D01*
X88930500Y-52518194D01*
X88930500Y-52059006D01*
X88924315Y-51990943D01*
X88884366Y-51862742D01*
X88873281Y-51827168D01*
X88876021Y-51826313D01*
X88868264Y-51770327D01*
X88874143Y-51750300D01*
X88873281Y-51750032D01*
X88903577Y-51652808D01*
X88924315Y-51586257D01*
X88930500Y-51518194D01*
X88930500Y-51059006D01*
X88924315Y-50990943D01*
X88903667Y-50924682D01*
X88873281Y-50827168D01*
X88875777Y-50826390D01*
X88867904Y-50769496D01*
X88872162Y-50750903D01*
X88905753Y-50643105D01*
X88924177Y-50583980D01*
X88930500Y-50514401D01*
X88930499Y-50022800D01*
X88930499Y-50022791D01*
X88924178Y-49953223D01*
X88924176Y-49953216D01*
X88874291Y-49793129D01*
X88874290Y-49793127D01*
X88787545Y-49649632D01*
X88787542Y-49649628D01*
X88668971Y-49531057D01*
X88668967Y-49531054D01*
X88525473Y-49444310D01*
X88525472Y-49444309D01*
X88525471Y-49444309D01*
X88365380Y-49394423D01*
X88365378Y-49394422D01*
X88365376Y-49394422D01*
X88316662Y-49389995D01*
X88295801Y-49388100D01*
X88295798Y-49388100D01*
X87364191Y-49388100D01*
X87294624Y-49394421D01*
X87294616Y-49394423D01*
X87127369Y-49446540D01*
X87126547Y-49443904D01*
X87118197Y-49445056D01*
X87098249Y-49452665D01*
X87084277Y-49449733D01*
X87070135Y-49451684D01*
X87050765Y-49442703D01*
X87029868Y-49438319D01*
X87010467Y-49424019D01*
X87006747Y-49422294D01*
X87001458Y-49417378D01*
X86978797Y-49395050D01*
X86944859Y-49333976D01*
X86941841Y-49308553D01*
X86938438Y-49078125D01*
X86937128Y-48989391D01*
X86955820Y-48922070D01*
X86972780Y-48900539D01*
X87084688Y-48786966D01*
X87145760Y-48753032D01*
X87173012Y-48750000D01*
X88734375Y-48750000D01*
X89250000Y-48234375D01*
X89250000Y-46687500D01*
X88562500Y-46000000D01*
X83383393Y-46000000D01*
X83316354Y-45980315D01*
X83295712Y-45963681D01*
X82536319Y-45204288D01*
X82502834Y-45142965D01*
X82500000Y-45116607D01*
X82500000Y-42093354D01*
X82519685Y-42026315D01*
X82536319Y-42005673D01*
X83505673Y-41036319D01*
X83566996Y-41002834D01*
X83593354Y-41000000D01*
X87437500Y-41000000D01*
X88500000Y-39937500D01*
X88500000Y-37598237D01*
X88519685Y-37531198D01*
X88536319Y-37510556D01*
X89260556Y-36786319D01*
X89321879Y-36752834D01*
X89348237Y-36750000D01*
X99440402Y-36750000D01*
X99507441Y-36769685D01*
G37*
%TD.AperFunction*%
%TD*%
%TA.AperFunction,Conductor*%
%TO.N,VIN*%
G36*
X100288539Y-54019685D02*
G01*
X100334294Y-54072489D01*
X100345500Y-54124000D01*
X100345500Y-54944544D01*
X100383947Y-55137828D01*
X100383950Y-55137840D01*
X100405633Y-55190186D01*
X100459366Y-55319911D01*
X100459372Y-55319922D01*
X100479101Y-55349447D01*
X100499980Y-55416124D01*
X100500000Y-55418339D01*
X100500000Y-62448638D01*
X100480315Y-62515677D01*
X100463681Y-62536319D01*
X100036319Y-62963681D01*
X99974996Y-62997166D01*
X99948638Y-63000000D01*
X90926362Y-63000000D01*
X90859323Y-62980315D01*
X90838681Y-62963681D01*
X90536319Y-62661319D01*
X90502834Y-62599996D01*
X90500000Y-62573638D01*
X90500000Y-60156250D01*
X89843750Y-59500000D01*
X88176362Y-59500000D01*
X88109323Y-59480315D01*
X88088681Y-59463681D01*
X87786319Y-59161319D01*
X87752834Y-59099996D01*
X87750000Y-59073638D01*
X87750000Y-58332612D01*
X87769685Y-58265573D01*
X87786319Y-58244931D01*
X87994931Y-58036319D01*
X88056254Y-58002834D01*
X88082612Y-58000000D01*
X98500000Y-58000000D01*
X99500000Y-57000000D01*
X99500000Y-55678783D01*
X99506962Y-55655071D01*
X99509780Y-55630514D01*
X99517570Y-55618944D01*
X99519685Y-55611744D01*
X99528006Y-55600290D01*
X99531930Y-55595490D01*
X99583139Y-55544282D01*
X99621540Y-55486811D01*
X99692632Y-55380414D01*
X99768051Y-55198335D01*
X99772935Y-55173785D01*
X99780088Y-55137828D01*
X99806499Y-55005045D01*
X99806500Y-55005042D01*
X99806500Y-54124000D01*
X99826185Y-54056961D01*
X99878989Y-54011206D01*
X99930500Y-54000000D01*
X100221500Y-54000000D01*
X100288539Y-54019685D01*
G37*
%TD.AperFunction*%
%TD*%
%TA.AperFunction,Conductor*%
%TO.N,SW*%
G36*
X110250676Y-38769685D02*
G01*
X110286811Y-38805217D01*
X110729174Y-39468761D01*
X110749982Y-39535460D01*
X110750000Y-39537544D01*
X110750000Y-52712456D01*
X110730315Y-52779495D01*
X110729174Y-52781239D01*
X110286811Y-53444783D01*
X110233246Y-53489644D01*
X110183637Y-53500000D01*
X103624000Y-53500000D01*
X103556961Y-53480315D01*
X103511206Y-53427511D01*
X103500000Y-53376000D01*
X103500000Y-50500000D01*
X102750000Y-49750000D01*
X101442992Y-49750000D01*
X101375953Y-49730315D01*
X101368681Y-49725267D01*
X101367509Y-49724390D01*
X101333331Y-49698804D01*
X101333329Y-49698803D01*
X101333328Y-49698802D01*
X101198482Y-49648508D01*
X101198483Y-49648508D01*
X101138883Y-49642101D01*
X101138881Y-49642100D01*
X101138873Y-49642100D01*
X101138865Y-49642100D01*
X101000500Y-49642100D01*
X100933461Y-49622415D01*
X100887706Y-49569611D01*
X100876500Y-49518100D01*
X100876500Y-47996056D01*
X100876500Y-47996054D01*
X100870434Y-47929304D01*
X100832114Y-47806327D01*
X100831907Y-47804971D01*
X100831523Y-47804373D01*
X100826500Y-47769438D01*
X100826500Y-47624000D01*
X100846185Y-47556961D01*
X100898989Y-47511206D01*
X100950500Y-47500000D01*
X102750000Y-47500000D01*
X104500000Y-45750000D01*
X104500000Y-39551362D01*
X104519685Y-39484323D01*
X104536319Y-39463681D01*
X105213681Y-38786319D01*
X105275004Y-38752834D01*
X105301362Y-38750000D01*
X110183637Y-38750000D01*
X110250676Y-38769685D01*
G37*
%TD.AperFunction*%
%TD*%
%TA.AperFunction,Conductor*%
%TO.N,GND*%
G36*
X112515677Y-54269685D02*
G01*
X112536319Y-54286319D01*
X112963681Y-54713681D01*
X112997166Y-54775004D01*
X113000000Y-54801362D01*
X113000000Y-62433637D01*
X112980315Y-62500676D01*
X112944783Y-62536811D01*
X112281239Y-62979174D01*
X112214540Y-62999982D01*
X112212456Y-63000000D01*
X102399696Y-63000000D01*
X102332657Y-62980315D01*
X102296522Y-62944783D01*
X102020826Y-62531239D01*
X102000018Y-62464540D01*
X102000000Y-62462456D01*
X102000000Y-58884695D01*
X102019685Y-58817656D01*
X102036319Y-58797014D01*
X103047014Y-57786319D01*
X103108337Y-57752834D01*
X103134695Y-57750000D01*
X106500000Y-57750000D01*
X107250000Y-57000000D01*
X107250000Y-55051362D01*
X107269685Y-54984323D01*
X107286319Y-54963681D01*
X107963681Y-54286319D01*
X108025004Y-54252834D01*
X108051362Y-54250000D01*
X112448638Y-54250000D01*
X112515677Y-54269685D01*
G37*
%TD.AperFunction*%
%TD*%
%TA.AperFunction,Conductor*%
%TO.N,Vout3.3*%
G36*
X118640677Y-38769685D02*
G01*
X118661319Y-38786319D01*
X119463681Y-39588681D01*
X119497166Y-39650004D01*
X119500000Y-39676362D01*
X119500000Y-56792388D01*
X119480315Y-56859427D01*
X119463681Y-56880069D01*
X118630069Y-57713681D01*
X118568746Y-57747166D01*
X118542388Y-57750000D01*
X115926362Y-57750000D01*
X115859323Y-57730315D01*
X115838681Y-57713681D01*
X115036319Y-56911319D01*
X115002834Y-56849996D01*
X115000000Y-56823638D01*
X115000000Y-52433713D01*
X116399500Y-52433713D01*
X116399500Y-52646286D01*
X116432753Y-52856239D01*
X116498444Y-53058414D01*
X116594951Y-53247820D01*
X116719890Y-53419786D01*
X116870213Y-53570109D01*
X117042179Y-53695048D01*
X117042181Y-53695049D01*
X117042184Y-53695051D01*
X117231588Y-53791557D01*
X117433757Y-53857246D01*
X117643713Y-53890500D01*
X117643714Y-53890500D01*
X117856286Y-53890500D01*
X117856287Y-53890500D01*
X118066243Y-53857246D01*
X118268412Y-53791557D01*
X118457816Y-53695051D01*
X118479789Y-53679086D01*
X118629786Y-53570109D01*
X118629788Y-53570106D01*
X118629792Y-53570104D01*
X118780104Y-53419792D01*
X118780106Y-53419788D01*
X118780109Y-53419786D01*
X118905048Y-53247820D01*
X118905047Y-53247820D01*
X118905051Y-53247816D01*
X119001557Y-53058412D01*
X119067246Y-52856243D01*
X119100500Y-52646287D01*
X119100500Y-52433713D01*
X119067246Y-52223757D01*
X119001557Y-52021588D01*
X118905051Y-51832184D01*
X118905049Y-51832181D01*
X118905048Y-51832179D01*
X118780109Y-51660213D01*
X118629786Y-51509890D01*
X118457820Y-51384951D01*
X118268414Y-51288444D01*
X118268413Y-51288443D01*
X118268412Y-51288443D01*
X118066243Y-51222754D01*
X118066241Y-51222753D01*
X118066240Y-51222753D01*
X117904957Y-51197208D01*
X117856287Y-51189500D01*
X117643713Y-51189500D01*
X117595042Y-51197208D01*
X117433760Y-51222753D01*
X117231585Y-51288444D01*
X117042179Y-51384951D01*
X116870213Y-51509890D01*
X116719890Y-51660213D01*
X116594951Y-51832179D01*
X116498444Y-52021585D01*
X116432753Y-52223760D01*
X116399500Y-52433713D01*
X115000000Y-52433713D01*
X115000000Y-39801362D01*
X115019685Y-39734323D01*
X115036319Y-39713681D01*
X115963681Y-38786319D01*
X116025004Y-38752834D01*
X116051362Y-38750000D01*
X118573638Y-38750000D01*
X118640677Y-38769685D01*
G37*
%TD.AperFunction*%
%TD*%
M02*
