M48
; DRILL file {KiCad 9.0.4} date 2025-10-19T21:38:01+0200
; FORMAT={-:-/ absolute / metric / decimal}
; #@! TF.CreationDate,2025-10-19T21:38:01+02:00
; #@! TF.GenerationSoftware,Kicad,Pcbnew,9.0.4
; #@! TF.FileFunction,Plated,1,2,PTH
FMAT,2
METRIC
; #@! TA.AperFunction,Plated,PTH,ViaDrill
T1C0.400
; #@! TA.AperFunction,Plated,PTH,ComponentDrill
T2C0.600
; #@! TA.AperFunction,Plated,PTH,ComponentDrill
T3C1.000
%
G90
G05
T1
X88.75Y-42.5
X88.75Y-43.5
X88.75Y-44.5
X89.75Y-42.5
X89.75Y-43.5
X89.75Y-44.5
X90.75Y-42.5
X90.75Y-43.5
X90.75Y-44.5
X92.25Y-52.75
X100.0Y-57.0
X102.25Y-40.75
X111.75Y-55.5
X111.75Y-56.5
X111.75Y-57.5
X116.25Y-55.0
T3
X89.0Y-61.75
X91.54Y-61.75
X117.75Y-50.0
X117.75Y-52.54
T2
X84.25Y-47.469G85X83.65Y-47.469
G05
X84.25Y-56.109G85X83.65Y-56.109
G05
X88.05Y-47.469G85X87.45Y-47.469
G05
X88.05Y-56.109G85X87.45Y-56.109
G05
M30
