%TF.GenerationSoftware,KiCad,Pcbnew,9.0.4*%
%TF.CreationDate,2025-10-19T21:38:01+02:00*%
%TF.ProjectId,3v-switching-voltage-regulator,33762d73-7769-4746-9368-696e672d766f,rev?*%
%TF.SameCoordinates,Original*%
%TF.FileFunction,Drillmap*%
%TF.FilePolarity,Positive*%
%FSLAX45Y45*%
G04 Gerber Fmt 4.5, Leading zero omitted, Abs format (unit mm)*
G04 Created by KiCad (PCBNEW 9.0.4) date 2025-10-19 21:38:01*
%MOMM*%
%LPD*%
G01*
G04 APERTURE LIST*
%ADD10C,0.100000*%
%ADD11C,0.200000*%
G04 APERTURE END LIST*
D10*
X8125000Y-6200000D02*
X8125000Y-3750000D01*
X8325000Y-3550000D02*
X11825000Y-3550000D01*
X8325000Y-6400000D02*
X8125000Y-6200000D01*
X8125000Y-3750000D02*
X8325000Y-3550000D01*
X12025000Y-3750000D02*
X11825000Y-3550000D01*
X8325000Y-6400000D02*
X11825000Y-6400000D01*
X12025000Y-6200000D02*
X12025000Y-3750000D01*
X11825000Y-6400000D02*
X12025000Y-6200000D01*
D11*
D10*
X8855000Y-4230000D02*
X8895000Y-4270000D01*
X8895000Y-4230000D02*
X8855000Y-4270000D01*
X8855000Y-4330000D02*
X8895000Y-4370000D01*
X8895000Y-4330000D02*
X8855000Y-4370000D01*
X8855000Y-4430000D02*
X8895000Y-4470000D01*
X8895000Y-4430000D02*
X8855000Y-4470000D01*
X8955000Y-4230000D02*
X8995000Y-4270000D01*
X8995000Y-4230000D02*
X8955000Y-4270000D01*
X8955000Y-4330000D02*
X8995000Y-4370000D01*
X8995000Y-4330000D02*
X8955000Y-4370000D01*
X8955000Y-4430000D02*
X8995000Y-4470000D01*
X8995000Y-4430000D02*
X8955000Y-4470000D01*
X9055000Y-4230000D02*
X9095000Y-4270000D01*
X9095000Y-4230000D02*
X9055000Y-4270000D01*
X9055000Y-4330000D02*
X9095000Y-4370000D01*
X9095000Y-4330000D02*
X9055000Y-4370000D01*
X9055000Y-4430000D02*
X9095000Y-4470000D01*
X9095000Y-4430000D02*
X9055000Y-4470000D01*
X9205000Y-5255000D02*
X9245000Y-5295000D01*
X9245000Y-5255000D02*
X9205000Y-5295000D01*
X9980000Y-5680000D02*
X10020000Y-5720000D01*
X10020000Y-5680000D02*
X9980000Y-5720000D01*
X10205000Y-4055000D02*
X10245000Y-4095000D01*
X10245000Y-4055000D02*
X10205000Y-4095000D01*
X11155000Y-5530000D02*
X11195000Y-5570000D01*
X11195000Y-5530000D02*
X11155000Y-5570000D01*
X11155000Y-5630000D02*
X11195000Y-5670000D01*
X11195000Y-5630000D02*
X11155000Y-5670000D01*
X11155000Y-5730000D02*
X11195000Y-5770000D01*
X11195000Y-5730000D02*
X11155000Y-5770000D01*
X11605000Y-5480000D02*
X11645000Y-5520000D01*
X11645000Y-5480000D02*
X11605000Y-5520000D01*
X8425000Y-4746860D02*
G75*
G02*
X8365000Y-4746860I-30000J0D01*
G01*
X8365000Y-4746860D02*
G75*
G02*
X8425000Y-4746860I30000J0D01*
G01*
X8425000Y-4716860D02*
X8365000Y-4716860D01*
X8365000Y-4776860D02*
G75*
G02*
X8365000Y-4716860I0J30000D01*
G01*
X8365000Y-4776860D02*
X8425000Y-4776860D01*
X8425000Y-4776860D02*
G75*
G03*
X8425000Y-4716860I0J30000D01*
G01*
X8425000Y-5610860D02*
G75*
G02*
X8365000Y-5610860I-30000J0D01*
G01*
X8365000Y-5610860D02*
G75*
G02*
X8425000Y-5610860I30000J0D01*
G01*
X8425000Y-5580860D02*
X8365000Y-5580860D01*
X8365000Y-5640860D02*
G75*
G02*
X8365000Y-5580860I0J30000D01*
G01*
X8365000Y-5640860D02*
X8425000Y-5640860D01*
X8425000Y-5640860D02*
G75*
G03*
X8425000Y-5580860I0J30000D01*
G01*
X8805000Y-4746860D02*
G75*
G02*
X8745000Y-4746860I-30000J0D01*
G01*
X8745000Y-4746860D02*
G75*
G02*
X8805000Y-4746860I30000J0D01*
G01*
X8805000Y-4716860D02*
X8745000Y-4716860D01*
X8745000Y-4776860D02*
G75*
G02*
X8745000Y-4716860I0J30000D01*
G01*
X8745000Y-4776860D02*
X8805000Y-4776860D01*
X8805000Y-4776860D02*
G75*
G03*
X8805000Y-4716860I0J30000D01*
G01*
X8805000Y-5610860D02*
G75*
G02*
X8745000Y-5610860I-30000J0D01*
G01*
X8745000Y-5610860D02*
G75*
G02*
X8805000Y-5610860I30000J0D01*
G01*
X8805000Y-5580860D02*
X8745000Y-5580860D01*
X8745000Y-5640860D02*
G75*
G02*
X8745000Y-5580860I0J30000D01*
G01*
X8745000Y-5640860D02*
X8805000Y-5640860D01*
X8805000Y-5640860D02*
G75*
G03*
X8805000Y-5580860I0J30000D01*
G01*
X8900000Y-6125000D02*
X8900000Y-6225000D01*
X8850000Y-6175000D02*
X8950000Y-6175000D01*
X9154000Y-6125000D02*
X9154000Y-6225000D01*
X9104000Y-6175000D02*
X9204000Y-6175000D01*
X11775000Y-4950000D02*
X11775000Y-5050000D01*
X11725000Y-5000000D02*
X11825000Y-5000000D01*
X11775000Y-5204000D02*
X11775000Y-5304000D01*
X11725000Y-5254000D02*
X11825000Y-5254000D01*
D11*
X8380777Y-6716484D02*
X8380777Y-6516484D01*
X8380777Y-6516484D02*
X8428396Y-6516484D01*
X8428396Y-6516484D02*
X8456967Y-6526008D01*
X8456967Y-6526008D02*
X8476015Y-6545055D01*
X8476015Y-6545055D02*
X8485539Y-6564103D01*
X8485539Y-6564103D02*
X8495063Y-6602198D01*
X8495063Y-6602198D02*
X8495063Y-6630769D01*
X8495063Y-6630769D02*
X8485539Y-6668865D01*
X8485539Y-6668865D02*
X8476015Y-6687912D01*
X8476015Y-6687912D02*
X8456967Y-6706960D01*
X8456967Y-6706960D02*
X8428396Y-6716484D01*
X8428396Y-6716484D02*
X8380777Y-6716484D01*
X8580777Y-6716484D02*
X8580777Y-6583150D01*
X8580777Y-6621246D02*
X8590301Y-6602198D01*
X8590301Y-6602198D02*
X8599824Y-6592674D01*
X8599824Y-6592674D02*
X8618872Y-6583150D01*
X8618872Y-6583150D02*
X8637920Y-6583150D01*
X8704586Y-6716484D02*
X8704586Y-6583150D01*
X8704586Y-6516484D02*
X8695063Y-6526008D01*
X8695063Y-6526008D02*
X8704586Y-6535531D01*
X8704586Y-6535531D02*
X8714110Y-6526008D01*
X8714110Y-6526008D02*
X8704586Y-6516484D01*
X8704586Y-6516484D02*
X8704586Y-6535531D01*
X8828396Y-6716484D02*
X8809348Y-6706960D01*
X8809348Y-6706960D02*
X8799824Y-6687912D01*
X8799824Y-6687912D02*
X8799824Y-6516484D01*
X8933158Y-6716484D02*
X8914110Y-6706960D01*
X8914110Y-6706960D02*
X8904586Y-6687912D01*
X8904586Y-6687912D02*
X8904586Y-6516484D01*
X9161729Y-6716484D02*
X9161729Y-6516484D01*
X9161729Y-6516484D02*
X9228396Y-6659341D01*
X9228396Y-6659341D02*
X9295063Y-6516484D01*
X9295063Y-6516484D02*
X9295063Y-6716484D01*
X9476015Y-6716484D02*
X9476015Y-6611722D01*
X9476015Y-6611722D02*
X9466491Y-6592674D01*
X9466491Y-6592674D02*
X9447444Y-6583150D01*
X9447444Y-6583150D02*
X9409348Y-6583150D01*
X9409348Y-6583150D02*
X9390301Y-6592674D01*
X9476015Y-6706960D02*
X9456967Y-6716484D01*
X9456967Y-6716484D02*
X9409348Y-6716484D01*
X9409348Y-6716484D02*
X9390301Y-6706960D01*
X9390301Y-6706960D02*
X9380777Y-6687912D01*
X9380777Y-6687912D02*
X9380777Y-6668865D01*
X9380777Y-6668865D02*
X9390301Y-6649817D01*
X9390301Y-6649817D02*
X9409348Y-6640293D01*
X9409348Y-6640293D02*
X9456967Y-6640293D01*
X9456967Y-6640293D02*
X9476015Y-6630769D01*
X9571253Y-6583150D02*
X9571253Y-6783150D01*
X9571253Y-6592674D02*
X9590301Y-6583150D01*
X9590301Y-6583150D02*
X9628396Y-6583150D01*
X9628396Y-6583150D02*
X9647444Y-6592674D01*
X9647444Y-6592674D02*
X9656967Y-6602198D01*
X9656967Y-6602198D02*
X9666491Y-6621246D01*
X9666491Y-6621246D02*
X9666491Y-6678388D01*
X9666491Y-6678388D02*
X9656967Y-6697436D01*
X9656967Y-6697436D02*
X9647444Y-6706960D01*
X9647444Y-6706960D02*
X9628396Y-6716484D01*
X9628396Y-6716484D02*
X9590301Y-6716484D01*
X9590301Y-6716484D02*
X9571253Y-6706960D01*
X9752205Y-6697436D02*
X9761729Y-6706960D01*
X9761729Y-6706960D02*
X9752205Y-6716484D01*
X9752205Y-6716484D02*
X9742682Y-6706960D01*
X9742682Y-6706960D02*
X9752205Y-6697436D01*
X9752205Y-6697436D02*
X9752205Y-6716484D01*
X9752205Y-6592674D02*
X9761729Y-6602198D01*
X9761729Y-6602198D02*
X9752205Y-6611722D01*
X9752205Y-6611722D02*
X9742682Y-6602198D01*
X9742682Y-6602198D02*
X9752205Y-6592674D01*
X9752205Y-6592674D02*
X9752205Y-6611722D01*
D10*
X8080000Y-7025000D02*
X8120000Y-7065000D01*
X8120000Y-7025000D02*
X8080000Y-7065000D01*
D11*
X8418872Y-6936484D02*
X8437920Y-6936484D01*
X8437920Y-6936484D02*
X8456967Y-6946008D01*
X8456967Y-6946008D02*
X8466491Y-6955531D01*
X8466491Y-6955531D02*
X8476015Y-6974579D01*
X8476015Y-6974579D02*
X8485539Y-7012674D01*
X8485539Y-7012674D02*
X8485539Y-7060293D01*
X8485539Y-7060293D02*
X8476015Y-7098388D01*
X8476015Y-7098388D02*
X8466491Y-7117436D01*
X8466491Y-7117436D02*
X8456967Y-7126960D01*
X8456967Y-7126960D02*
X8437920Y-7136484D01*
X8437920Y-7136484D02*
X8418872Y-7136484D01*
X8418872Y-7136484D02*
X8399824Y-7126960D01*
X8399824Y-7126960D02*
X8390301Y-7117436D01*
X8390301Y-7117436D02*
X8380777Y-7098388D01*
X8380777Y-7098388D02*
X8371253Y-7060293D01*
X8371253Y-7060293D02*
X8371253Y-7012674D01*
X8371253Y-7012674D02*
X8380777Y-6974579D01*
X8380777Y-6974579D02*
X8390301Y-6955531D01*
X8390301Y-6955531D02*
X8399824Y-6946008D01*
X8399824Y-6946008D02*
X8418872Y-6936484D01*
X8571253Y-7117436D02*
X8580777Y-7126960D01*
X8580777Y-7126960D02*
X8571253Y-7136484D01*
X8571253Y-7136484D02*
X8561729Y-7126960D01*
X8561729Y-7126960D02*
X8571253Y-7117436D01*
X8571253Y-7117436D02*
X8571253Y-7136484D01*
X8752205Y-7003150D02*
X8752205Y-7136484D01*
X8704586Y-6926960D02*
X8656967Y-7069817D01*
X8656967Y-7069817D02*
X8780777Y-7069817D01*
X8895063Y-6936484D02*
X8914110Y-6936484D01*
X8914110Y-6936484D02*
X8933158Y-6946008D01*
X8933158Y-6946008D02*
X8942682Y-6955531D01*
X8942682Y-6955531D02*
X8952205Y-6974579D01*
X8952205Y-6974579D02*
X8961729Y-7012674D01*
X8961729Y-7012674D02*
X8961729Y-7060293D01*
X8961729Y-7060293D02*
X8952205Y-7098388D01*
X8952205Y-7098388D02*
X8942682Y-7117436D01*
X8942682Y-7117436D02*
X8933158Y-7126960D01*
X8933158Y-7126960D02*
X8914110Y-7136484D01*
X8914110Y-7136484D02*
X8895063Y-7136484D01*
X8895063Y-7136484D02*
X8876015Y-7126960D01*
X8876015Y-7126960D02*
X8866491Y-7117436D01*
X8866491Y-7117436D02*
X8856967Y-7098388D01*
X8856967Y-7098388D02*
X8847444Y-7060293D01*
X8847444Y-7060293D02*
X8847444Y-7012674D01*
X8847444Y-7012674D02*
X8856967Y-6974579D01*
X8856967Y-6974579D02*
X8866491Y-6955531D01*
X8866491Y-6955531D02*
X8876015Y-6946008D01*
X8876015Y-6946008D02*
X8895063Y-6936484D01*
X9085539Y-6936484D02*
X9104586Y-6936484D01*
X9104586Y-6936484D02*
X9123634Y-6946008D01*
X9123634Y-6946008D02*
X9133158Y-6955531D01*
X9133158Y-6955531D02*
X9142682Y-6974579D01*
X9142682Y-6974579D02*
X9152205Y-7012674D01*
X9152205Y-7012674D02*
X9152205Y-7060293D01*
X9152205Y-7060293D02*
X9142682Y-7098388D01*
X9142682Y-7098388D02*
X9133158Y-7117436D01*
X9133158Y-7117436D02*
X9123634Y-7126960D01*
X9123634Y-7126960D02*
X9104586Y-7136484D01*
X9104586Y-7136484D02*
X9085539Y-7136484D01*
X9085539Y-7136484D02*
X9066491Y-7126960D01*
X9066491Y-7126960D02*
X9056967Y-7117436D01*
X9056967Y-7117436D02*
X9047444Y-7098388D01*
X9047444Y-7098388D02*
X9037920Y-7060293D01*
X9037920Y-7060293D02*
X9037920Y-7012674D01*
X9037920Y-7012674D02*
X9047444Y-6974579D01*
X9047444Y-6974579D02*
X9056967Y-6955531D01*
X9056967Y-6955531D02*
X9066491Y-6946008D01*
X9066491Y-6946008D02*
X9085539Y-6936484D01*
X9237920Y-7136484D02*
X9237920Y-7003150D01*
X9237920Y-7022198D02*
X9247444Y-7012674D01*
X9247444Y-7012674D02*
X9266491Y-7003150D01*
X9266491Y-7003150D02*
X9295063Y-7003150D01*
X9295063Y-7003150D02*
X9314110Y-7012674D01*
X9314110Y-7012674D02*
X9323634Y-7031722D01*
X9323634Y-7031722D02*
X9323634Y-7136484D01*
X9323634Y-7031722D02*
X9333158Y-7012674D01*
X9333158Y-7012674D02*
X9352205Y-7003150D01*
X9352205Y-7003150D02*
X9380777Y-7003150D01*
X9380777Y-7003150D02*
X9399825Y-7012674D01*
X9399825Y-7012674D02*
X9409348Y-7031722D01*
X9409348Y-7031722D02*
X9409348Y-7136484D01*
X9504586Y-7136484D02*
X9504586Y-7003150D01*
X9504586Y-7022198D02*
X9514110Y-7012674D01*
X9514110Y-7012674D02*
X9533158Y-7003150D01*
X9533158Y-7003150D02*
X9561729Y-7003150D01*
X9561729Y-7003150D02*
X9580777Y-7012674D01*
X9580777Y-7012674D02*
X9590301Y-7031722D01*
X9590301Y-7031722D02*
X9590301Y-7136484D01*
X9590301Y-7031722D02*
X9599825Y-7012674D01*
X9599825Y-7012674D02*
X9618872Y-7003150D01*
X9618872Y-7003150D02*
X9647444Y-7003150D01*
X9647444Y-7003150D02*
X9666491Y-7012674D01*
X9666491Y-7012674D02*
X9676015Y-7031722D01*
X9676015Y-7031722D02*
X9676015Y-7136484D01*
X10066491Y-6926960D02*
X9895063Y-7184103D01*
X10323634Y-6936484D02*
X10342682Y-6936484D01*
X10342682Y-6936484D02*
X10361729Y-6946008D01*
X10361729Y-6946008D02*
X10371253Y-6955531D01*
X10371253Y-6955531D02*
X10380777Y-6974579D01*
X10380777Y-6974579D02*
X10390301Y-7012674D01*
X10390301Y-7012674D02*
X10390301Y-7060293D01*
X10390301Y-7060293D02*
X10380777Y-7098388D01*
X10380777Y-7098388D02*
X10371253Y-7117436D01*
X10371253Y-7117436D02*
X10361729Y-7126960D01*
X10361729Y-7126960D02*
X10342682Y-7136484D01*
X10342682Y-7136484D02*
X10323634Y-7136484D01*
X10323634Y-7136484D02*
X10304587Y-7126960D01*
X10304587Y-7126960D02*
X10295063Y-7117436D01*
X10295063Y-7117436D02*
X10285539Y-7098388D01*
X10285539Y-7098388D02*
X10276015Y-7060293D01*
X10276015Y-7060293D02*
X10276015Y-7012674D01*
X10276015Y-7012674D02*
X10285539Y-6974579D01*
X10285539Y-6974579D02*
X10295063Y-6955531D01*
X10295063Y-6955531D02*
X10304587Y-6946008D01*
X10304587Y-6946008D02*
X10323634Y-6936484D01*
X10476015Y-7117436D02*
X10485539Y-7126960D01*
X10485539Y-7126960D02*
X10476015Y-7136484D01*
X10476015Y-7136484D02*
X10466491Y-7126960D01*
X10466491Y-7126960D02*
X10476015Y-7117436D01*
X10476015Y-7117436D02*
X10476015Y-7136484D01*
X10609348Y-6936484D02*
X10628396Y-6936484D01*
X10628396Y-6936484D02*
X10647444Y-6946008D01*
X10647444Y-6946008D02*
X10656968Y-6955531D01*
X10656968Y-6955531D02*
X10666491Y-6974579D01*
X10666491Y-6974579D02*
X10676015Y-7012674D01*
X10676015Y-7012674D02*
X10676015Y-7060293D01*
X10676015Y-7060293D02*
X10666491Y-7098388D01*
X10666491Y-7098388D02*
X10656968Y-7117436D01*
X10656968Y-7117436D02*
X10647444Y-7126960D01*
X10647444Y-7126960D02*
X10628396Y-7136484D01*
X10628396Y-7136484D02*
X10609348Y-7136484D01*
X10609348Y-7136484D02*
X10590301Y-7126960D01*
X10590301Y-7126960D02*
X10580777Y-7117436D01*
X10580777Y-7117436D02*
X10571253Y-7098388D01*
X10571253Y-7098388D02*
X10561729Y-7060293D01*
X10561729Y-7060293D02*
X10561729Y-7012674D01*
X10561729Y-7012674D02*
X10571253Y-6974579D01*
X10571253Y-6974579D02*
X10580777Y-6955531D01*
X10580777Y-6955531D02*
X10590301Y-6946008D01*
X10590301Y-6946008D02*
X10609348Y-6936484D01*
X10866491Y-7136484D02*
X10752206Y-7136484D01*
X10809348Y-7136484D02*
X10809348Y-6936484D01*
X10809348Y-6936484D02*
X10790301Y-6965055D01*
X10790301Y-6965055D02*
X10771253Y-6984103D01*
X10771253Y-6984103D02*
X10752206Y-6993627D01*
X11047444Y-6936484D02*
X10952206Y-6936484D01*
X10952206Y-6936484D02*
X10942682Y-7031722D01*
X10942682Y-7031722D02*
X10952206Y-7022198D01*
X10952206Y-7022198D02*
X10971253Y-7012674D01*
X10971253Y-7012674D02*
X11018872Y-7012674D01*
X11018872Y-7012674D02*
X11037920Y-7022198D01*
X11037920Y-7022198D02*
X11047444Y-7031722D01*
X11047444Y-7031722D02*
X11056968Y-7050769D01*
X11056968Y-7050769D02*
X11056968Y-7098388D01*
X11056968Y-7098388D02*
X11047444Y-7117436D01*
X11047444Y-7117436D02*
X11037920Y-7126960D01*
X11037920Y-7126960D02*
X11018872Y-7136484D01*
X11018872Y-7136484D02*
X10971253Y-7136484D01*
X10971253Y-7136484D02*
X10952206Y-7126960D01*
X10952206Y-7126960D02*
X10942682Y-7117436D01*
X11123634Y-6936484D02*
X11256967Y-6936484D01*
X11256967Y-6936484D02*
X11171253Y-7136484D01*
X11323634Y-6936484D02*
X11323634Y-6974579D01*
X11399825Y-6936484D02*
X11399825Y-6974579D01*
X11695063Y-7212674D02*
X11685539Y-7203150D01*
X11685539Y-7203150D02*
X11666491Y-7174579D01*
X11666491Y-7174579D02*
X11656968Y-7155531D01*
X11656968Y-7155531D02*
X11647444Y-7126960D01*
X11647444Y-7126960D02*
X11637920Y-7079341D01*
X11637920Y-7079341D02*
X11637920Y-7041246D01*
X11637920Y-7041246D02*
X11647444Y-6993627D01*
X11647444Y-6993627D02*
X11656968Y-6965055D01*
X11656968Y-6965055D02*
X11666491Y-6946008D01*
X11666491Y-6946008D02*
X11685539Y-6917436D01*
X11685539Y-6917436D02*
X11695063Y-6907912D01*
X11876015Y-7136484D02*
X11761729Y-7136484D01*
X11818872Y-7136484D02*
X11818872Y-6936484D01*
X11818872Y-6936484D02*
X11799825Y-6965055D01*
X11799825Y-6965055D02*
X11780777Y-6984103D01*
X11780777Y-6984103D02*
X11761729Y-6993627D01*
X12047444Y-6936484D02*
X12009348Y-6936484D01*
X12009348Y-6936484D02*
X11990301Y-6946008D01*
X11990301Y-6946008D02*
X11980777Y-6955531D01*
X11980777Y-6955531D02*
X11961729Y-6984103D01*
X11961729Y-6984103D02*
X11952206Y-7022198D01*
X11952206Y-7022198D02*
X11952206Y-7098388D01*
X11952206Y-7098388D02*
X11961729Y-7117436D01*
X11961729Y-7117436D02*
X11971253Y-7126960D01*
X11971253Y-7126960D02*
X11990301Y-7136484D01*
X11990301Y-7136484D02*
X12028396Y-7136484D01*
X12028396Y-7136484D02*
X12047444Y-7126960D01*
X12047444Y-7126960D02*
X12056968Y-7117436D01*
X12056968Y-7117436D02*
X12066491Y-7098388D01*
X12066491Y-7098388D02*
X12066491Y-7050769D01*
X12066491Y-7050769D02*
X12056968Y-7031722D01*
X12056968Y-7031722D02*
X12047444Y-7022198D01*
X12047444Y-7022198D02*
X12028396Y-7012674D01*
X12028396Y-7012674D02*
X11990301Y-7012674D01*
X11990301Y-7012674D02*
X11971253Y-7022198D01*
X11971253Y-7022198D02*
X11961729Y-7031722D01*
X11961729Y-7031722D02*
X11952206Y-7050769D01*
X12304587Y-7136484D02*
X12304587Y-6936484D01*
X12390301Y-7136484D02*
X12390301Y-7031722D01*
X12390301Y-7031722D02*
X12380777Y-7012674D01*
X12380777Y-7012674D02*
X12361730Y-7003150D01*
X12361730Y-7003150D02*
X12333158Y-7003150D01*
X12333158Y-7003150D02*
X12314110Y-7012674D01*
X12314110Y-7012674D02*
X12304587Y-7022198D01*
X12514110Y-7136484D02*
X12495063Y-7126960D01*
X12495063Y-7126960D02*
X12485539Y-7117436D01*
X12485539Y-7117436D02*
X12476015Y-7098388D01*
X12476015Y-7098388D02*
X12476015Y-7041246D01*
X12476015Y-7041246D02*
X12485539Y-7022198D01*
X12485539Y-7022198D02*
X12495063Y-7012674D01*
X12495063Y-7012674D02*
X12514110Y-7003150D01*
X12514110Y-7003150D02*
X12542682Y-7003150D01*
X12542682Y-7003150D02*
X12561730Y-7012674D01*
X12561730Y-7012674D02*
X12571253Y-7022198D01*
X12571253Y-7022198D02*
X12580777Y-7041246D01*
X12580777Y-7041246D02*
X12580777Y-7098388D01*
X12580777Y-7098388D02*
X12571253Y-7117436D01*
X12571253Y-7117436D02*
X12561730Y-7126960D01*
X12561730Y-7126960D02*
X12542682Y-7136484D01*
X12542682Y-7136484D02*
X12514110Y-7136484D01*
X12695063Y-7136484D02*
X12676015Y-7126960D01*
X12676015Y-7126960D02*
X12666491Y-7107912D01*
X12666491Y-7107912D02*
X12666491Y-6936484D01*
X12847444Y-7126960D02*
X12828396Y-7136484D01*
X12828396Y-7136484D02*
X12790301Y-7136484D01*
X12790301Y-7136484D02*
X12771253Y-7126960D01*
X12771253Y-7126960D02*
X12761730Y-7107912D01*
X12761730Y-7107912D02*
X12761730Y-7031722D01*
X12761730Y-7031722D02*
X12771253Y-7012674D01*
X12771253Y-7012674D02*
X12790301Y-7003150D01*
X12790301Y-7003150D02*
X12828396Y-7003150D01*
X12828396Y-7003150D02*
X12847444Y-7012674D01*
X12847444Y-7012674D02*
X12856968Y-7031722D01*
X12856968Y-7031722D02*
X12856968Y-7050769D01*
X12856968Y-7050769D02*
X12761730Y-7069817D01*
X12933158Y-7126960D02*
X12952206Y-7136484D01*
X12952206Y-7136484D02*
X12990301Y-7136484D01*
X12990301Y-7136484D02*
X13009349Y-7126960D01*
X13009349Y-7126960D02*
X13018872Y-7107912D01*
X13018872Y-7107912D02*
X13018872Y-7098388D01*
X13018872Y-7098388D02*
X13009349Y-7079341D01*
X13009349Y-7079341D02*
X12990301Y-7069817D01*
X12990301Y-7069817D02*
X12961730Y-7069817D01*
X12961730Y-7069817D02*
X12942682Y-7060293D01*
X12942682Y-7060293D02*
X12933158Y-7041246D01*
X12933158Y-7041246D02*
X12933158Y-7031722D01*
X12933158Y-7031722D02*
X12942682Y-7012674D01*
X12942682Y-7012674D02*
X12961730Y-7003150D01*
X12961730Y-7003150D02*
X12990301Y-7003150D01*
X12990301Y-7003150D02*
X13009349Y-7012674D01*
X13085539Y-7212674D02*
X13095063Y-7203150D01*
X13095063Y-7203150D02*
X13114111Y-7174579D01*
X13114111Y-7174579D02*
X13123634Y-7155531D01*
X13123634Y-7155531D02*
X13133158Y-7126960D01*
X13133158Y-7126960D02*
X13142682Y-7079341D01*
X13142682Y-7079341D02*
X13142682Y-7041246D01*
X13142682Y-7041246D02*
X13133158Y-6993627D01*
X13133158Y-6993627D02*
X13123634Y-6965055D01*
X13123634Y-6965055D02*
X13114111Y-6946008D01*
X13114111Y-6946008D02*
X13095063Y-6917436D01*
X13095063Y-6917436D02*
X13085539Y-6907912D01*
D10*
X8120000Y-7309000D02*
G75*
G02*
X8060000Y-7309000I-30000J0D01*
G01*
X8060000Y-7309000D02*
G75*
G02*
X8120000Y-7309000I30000J0D01*
G01*
D11*
X8418872Y-7200484D02*
X8437920Y-7200484D01*
X8437920Y-7200484D02*
X8456967Y-7210008D01*
X8456967Y-7210008D02*
X8466491Y-7219531D01*
X8466491Y-7219531D02*
X8476015Y-7238579D01*
X8476015Y-7238579D02*
X8485539Y-7276674D01*
X8485539Y-7276674D02*
X8485539Y-7324293D01*
X8485539Y-7324293D02*
X8476015Y-7362388D01*
X8476015Y-7362388D02*
X8466491Y-7381436D01*
X8466491Y-7381436D02*
X8456967Y-7390960D01*
X8456967Y-7390960D02*
X8437920Y-7400484D01*
X8437920Y-7400484D02*
X8418872Y-7400484D01*
X8418872Y-7400484D02*
X8399824Y-7390960D01*
X8399824Y-7390960D02*
X8390301Y-7381436D01*
X8390301Y-7381436D02*
X8380777Y-7362388D01*
X8380777Y-7362388D02*
X8371253Y-7324293D01*
X8371253Y-7324293D02*
X8371253Y-7276674D01*
X8371253Y-7276674D02*
X8380777Y-7238579D01*
X8380777Y-7238579D02*
X8390301Y-7219531D01*
X8390301Y-7219531D02*
X8399824Y-7210008D01*
X8399824Y-7210008D02*
X8418872Y-7200484D01*
X8571253Y-7381436D02*
X8580777Y-7390960D01*
X8580777Y-7390960D02*
X8571253Y-7400484D01*
X8571253Y-7400484D02*
X8561729Y-7390960D01*
X8561729Y-7390960D02*
X8571253Y-7381436D01*
X8571253Y-7381436D02*
X8571253Y-7400484D01*
X8752205Y-7200484D02*
X8714110Y-7200484D01*
X8714110Y-7200484D02*
X8695063Y-7210008D01*
X8695063Y-7210008D02*
X8685539Y-7219531D01*
X8685539Y-7219531D02*
X8666491Y-7248103D01*
X8666491Y-7248103D02*
X8656967Y-7286198D01*
X8656967Y-7286198D02*
X8656967Y-7362388D01*
X8656967Y-7362388D02*
X8666491Y-7381436D01*
X8666491Y-7381436D02*
X8676015Y-7390960D01*
X8676015Y-7390960D02*
X8695063Y-7400484D01*
X8695063Y-7400484D02*
X8733158Y-7400484D01*
X8733158Y-7400484D02*
X8752205Y-7390960D01*
X8752205Y-7390960D02*
X8761729Y-7381436D01*
X8761729Y-7381436D02*
X8771253Y-7362388D01*
X8771253Y-7362388D02*
X8771253Y-7314769D01*
X8771253Y-7314769D02*
X8761729Y-7295722D01*
X8761729Y-7295722D02*
X8752205Y-7286198D01*
X8752205Y-7286198D02*
X8733158Y-7276674D01*
X8733158Y-7276674D02*
X8695063Y-7276674D01*
X8695063Y-7276674D02*
X8676015Y-7286198D01*
X8676015Y-7286198D02*
X8666491Y-7295722D01*
X8666491Y-7295722D02*
X8656967Y-7314769D01*
X8895063Y-7200484D02*
X8914110Y-7200484D01*
X8914110Y-7200484D02*
X8933158Y-7210008D01*
X8933158Y-7210008D02*
X8942682Y-7219531D01*
X8942682Y-7219531D02*
X8952205Y-7238579D01*
X8952205Y-7238579D02*
X8961729Y-7276674D01*
X8961729Y-7276674D02*
X8961729Y-7324293D01*
X8961729Y-7324293D02*
X8952205Y-7362388D01*
X8952205Y-7362388D02*
X8942682Y-7381436D01*
X8942682Y-7381436D02*
X8933158Y-7390960D01*
X8933158Y-7390960D02*
X8914110Y-7400484D01*
X8914110Y-7400484D02*
X8895063Y-7400484D01*
X8895063Y-7400484D02*
X8876015Y-7390960D01*
X8876015Y-7390960D02*
X8866491Y-7381436D01*
X8866491Y-7381436D02*
X8856967Y-7362388D01*
X8856967Y-7362388D02*
X8847444Y-7324293D01*
X8847444Y-7324293D02*
X8847444Y-7276674D01*
X8847444Y-7276674D02*
X8856967Y-7238579D01*
X8856967Y-7238579D02*
X8866491Y-7219531D01*
X8866491Y-7219531D02*
X8876015Y-7210008D01*
X8876015Y-7210008D02*
X8895063Y-7200484D01*
X9085539Y-7200484D02*
X9104586Y-7200484D01*
X9104586Y-7200484D02*
X9123634Y-7210008D01*
X9123634Y-7210008D02*
X9133158Y-7219531D01*
X9133158Y-7219531D02*
X9142682Y-7238579D01*
X9142682Y-7238579D02*
X9152205Y-7276674D01*
X9152205Y-7276674D02*
X9152205Y-7324293D01*
X9152205Y-7324293D02*
X9142682Y-7362388D01*
X9142682Y-7362388D02*
X9133158Y-7381436D01*
X9133158Y-7381436D02*
X9123634Y-7390960D01*
X9123634Y-7390960D02*
X9104586Y-7400484D01*
X9104586Y-7400484D02*
X9085539Y-7400484D01*
X9085539Y-7400484D02*
X9066491Y-7390960D01*
X9066491Y-7390960D02*
X9056967Y-7381436D01*
X9056967Y-7381436D02*
X9047444Y-7362388D01*
X9047444Y-7362388D02*
X9037920Y-7324293D01*
X9037920Y-7324293D02*
X9037920Y-7276674D01*
X9037920Y-7276674D02*
X9047444Y-7238579D01*
X9047444Y-7238579D02*
X9056967Y-7219531D01*
X9056967Y-7219531D02*
X9066491Y-7210008D01*
X9066491Y-7210008D02*
X9085539Y-7200484D01*
X9237920Y-7400484D02*
X9237920Y-7267150D01*
X9237920Y-7286198D02*
X9247444Y-7276674D01*
X9247444Y-7276674D02*
X9266491Y-7267150D01*
X9266491Y-7267150D02*
X9295063Y-7267150D01*
X9295063Y-7267150D02*
X9314110Y-7276674D01*
X9314110Y-7276674D02*
X9323634Y-7295722D01*
X9323634Y-7295722D02*
X9323634Y-7400484D01*
X9323634Y-7295722D02*
X9333158Y-7276674D01*
X9333158Y-7276674D02*
X9352205Y-7267150D01*
X9352205Y-7267150D02*
X9380777Y-7267150D01*
X9380777Y-7267150D02*
X9399825Y-7276674D01*
X9399825Y-7276674D02*
X9409348Y-7295722D01*
X9409348Y-7295722D02*
X9409348Y-7400484D01*
X9504586Y-7400484D02*
X9504586Y-7267150D01*
X9504586Y-7286198D02*
X9514110Y-7276674D01*
X9514110Y-7276674D02*
X9533158Y-7267150D01*
X9533158Y-7267150D02*
X9561729Y-7267150D01*
X9561729Y-7267150D02*
X9580777Y-7276674D01*
X9580777Y-7276674D02*
X9590301Y-7295722D01*
X9590301Y-7295722D02*
X9590301Y-7400484D01*
X9590301Y-7295722D02*
X9599825Y-7276674D01*
X9599825Y-7276674D02*
X9618872Y-7267150D01*
X9618872Y-7267150D02*
X9647444Y-7267150D01*
X9647444Y-7267150D02*
X9666491Y-7276674D01*
X9666491Y-7276674D02*
X9676015Y-7295722D01*
X9676015Y-7295722D02*
X9676015Y-7400484D01*
X10066491Y-7190960D02*
X9895063Y-7448103D01*
X10323634Y-7200484D02*
X10342682Y-7200484D01*
X10342682Y-7200484D02*
X10361729Y-7210008D01*
X10361729Y-7210008D02*
X10371253Y-7219531D01*
X10371253Y-7219531D02*
X10380777Y-7238579D01*
X10380777Y-7238579D02*
X10390301Y-7276674D01*
X10390301Y-7276674D02*
X10390301Y-7324293D01*
X10390301Y-7324293D02*
X10380777Y-7362388D01*
X10380777Y-7362388D02*
X10371253Y-7381436D01*
X10371253Y-7381436D02*
X10361729Y-7390960D01*
X10361729Y-7390960D02*
X10342682Y-7400484D01*
X10342682Y-7400484D02*
X10323634Y-7400484D01*
X10323634Y-7400484D02*
X10304587Y-7390960D01*
X10304587Y-7390960D02*
X10295063Y-7381436D01*
X10295063Y-7381436D02*
X10285539Y-7362388D01*
X10285539Y-7362388D02*
X10276015Y-7324293D01*
X10276015Y-7324293D02*
X10276015Y-7276674D01*
X10276015Y-7276674D02*
X10285539Y-7238579D01*
X10285539Y-7238579D02*
X10295063Y-7219531D01*
X10295063Y-7219531D02*
X10304587Y-7210008D01*
X10304587Y-7210008D02*
X10323634Y-7200484D01*
X10476015Y-7381436D02*
X10485539Y-7390960D01*
X10485539Y-7390960D02*
X10476015Y-7400484D01*
X10476015Y-7400484D02*
X10466491Y-7390960D01*
X10466491Y-7390960D02*
X10476015Y-7381436D01*
X10476015Y-7381436D02*
X10476015Y-7400484D01*
X10609348Y-7200484D02*
X10628396Y-7200484D01*
X10628396Y-7200484D02*
X10647444Y-7210008D01*
X10647444Y-7210008D02*
X10656968Y-7219531D01*
X10656968Y-7219531D02*
X10666491Y-7238579D01*
X10666491Y-7238579D02*
X10676015Y-7276674D01*
X10676015Y-7276674D02*
X10676015Y-7324293D01*
X10676015Y-7324293D02*
X10666491Y-7362388D01*
X10666491Y-7362388D02*
X10656968Y-7381436D01*
X10656968Y-7381436D02*
X10647444Y-7390960D01*
X10647444Y-7390960D02*
X10628396Y-7400484D01*
X10628396Y-7400484D02*
X10609348Y-7400484D01*
X10609348Y-7400484D02*
X10590301Y-7390960D01*
X10590301Y-7390960D02*
X10580777Y-7381436D01*
X10580777Y-7381436D02*
X10571253Y-7362388D01*
X10571253Y-7362388D02*
X10561729Y-7324293D01*
X10561729Y-7324293D02*
X10561729Y-7276674D01*
X10561729Y-7276674D02*
X10571253Y-7238579D01*
X10571253Y-7238579D02*
X10580777Y-7219531D01*
X10580777Y-7219531D02*
X10590301Y-7210008D01*
X10590301Y-7210008D02*
X10609348Y-7200484D01*
X10752206Y-7219531D02*
X10761729Y-7210008D01*
X10761729Y-7210008D02*
X10780777Y-7200484D01*
X10780777Y-7200484D02*
X10828396Y-7200484D01*
X10828396Y-7200484D02*
X10847444Y-7210008D01*
X10847444Y-7210008D02*
X10856968Y-7219531D01*
X10856968Y-7219531D02*
X10866491Y-7238579D01*
X10866491Y-7238579D02*
X10866491Y-7257627D01*
X10866491Y-7257627D02*
X10856968Y-7286198D01*
X10856968Y-7286198D02*
X10742682Y-7400484D01*
X10742682Y-7400484D02*
X10866491Y-7400484D01*
X10933158Y-7200484D02*
X11056968Y-7200484D01*
X11056968Y-7200484D02*
X10990301Y-7276674D01*
X10990301Y-7276674D02*
X11018872Y-7276674D01*
X11018872Y-7276674D02*
X11037920Y-7286198D01*
X11037920Y-7286198D02*
X11047444Y-7295722D01*
X11047444Y-7295722D02*
X11056968Y-7314769D01*
X11056968Y-7314769D02*
X11056968Y-7362388D01*
X11056968Y-7362388D02*
X11047444Y-7381436D01*
X11047444Y-7381436D02*
X11037920Y-7390960D01*
X11037920Y-7390960D02*
X11018872Y-7400484D01*
X11018872Y-7400484D02*
X10961729Y-7400484D01*
X10961729Y-7400484D02*
X10942682Y-7390960D01*
X10942682Y-7390960D02*
X10933158Y-7381436D01*
X11228396Y-7200484D02*
X11190301Y-7200484D01*
X11190301Y-7200484D02*
X11171253Y-7210008D01*
X11171253Y-7210008D02*
X11161729Y-7219531D01*
X11161729Y-7219531D02*
X11142682Y-7248103D01*
X11142682Y-7248103D02*
X11133158Y-7286198D01*
X11133158Y-7286198D02*
X11133158Y-7362388D01*
X11133158Y-7362388D02*
X11142682Y-7381436D01*
X11142682Y-7381436D02*
X11152206Y-7390960D01*
X11152206Y-7390960D02*
X11171253Y-7400484D01*
X11171253Y-7400484D02*
X11209348Y-7400484D01*
X11209348Y-7400484D02*
X11228396Y-7390960D01*
X11228396Y-7390960D02*
X11237920Y-7381436D01*
X11237920Y-7381436D02*
X11247444Y-7362388D01*
X11247444Y-7362388D02*
X11247444Y-7314769D01*
X11247444Y-7314769D02*
X11237920Y-7295722D01*
X11237920Y-7295722D02*
X11228396Y-7286198D01*
X11228396Y-7286198D02*
X11209348Y-7276674D01*
X11209348Y-7276674D02*
X11171253Y-7276674D01*
X11171253Y-7276674D02*
X11152206Y-7286198D01*
X11152206Y-7286198D02*
X11142682Y-7295722D01*
X11142682Y-7295722D02*
X11133158Y-7314769D01*
X11323634Y-7200484D02*
X11323634Y-7238579D01*
X11399825Y-7200484D02*
X11399825Y-7238579D01*
X11695063Y-7476674D02*
X11685539Y-7467150D01*
X11685539Y-7467150D02*
X11666491Y-7438579D01*
X11666491Y-7438579D02*
X11656968Y-7419531D01*
X11656968Y-7419531D02*
X11647444Y-7390960D01*
X11647444Y-7390960D02*
X11637920Y-7343341D01*
X11637920Y-7343341D02*
X11637920Y-7305246D01*
X11637920Y-7305246D02*
X11647444Y-7257627D01*
X11647444Y-7257627D02*
X11656968Y-7229055D01*
X11656968Y-7229055D02*
X11666491Y-7210008D01*
X11666491Y-7210008D02*
X11685539Y-7181436D01*
X11685539Y-7181436D02*
X11695063Y-7171912D01*
X11809348Y-7200484D02*
X11828396Y-7200484D01*
X11828396Y-7200484D02*
X11847444Y-7210008D01*
X11847444Y-7210008D02*
X11856968Y-7219531D01*
X11856968Y-7219531D02*
X11866491Y-7238579D01*
X11866491Y-7238579D02*
X11876015Y-7276674D01*
X11876015Y-7276674D02*
X11876015Y-7324293D01*
X11876015Y-7324293D02*
X11866491Y-7362388D01*
X11866491Y-7362388D02*
X11856968Y-7381436D01*
X11856968Y-7381436D02*
X11847444Y-7390960D01*
X11847444Y-7390960D02*
X11828396Y-7400484D01*
X11828396Y-7400484D02*
X11809348Y-7400484D01*
X11809348Y-7400484D02*
X11790301Y-7390960D01*
X11790301Y-7390960D02*
X11780777Y-7381436D01*
X11780777Y-7381436D02*
X11771253Y-7362388D01*
X11771253Y-7362388D02*
X11761729Y-7324293D01*
X11761729Y-7324293D02*
X11761729Y-7276674D01*
X11761729Y-7276674D02*
X11771253Y-7238579D01*
X11771253Y-7238579D02*
X11780777Y-7219531D01*
X11780777Y-7219531D02*
X11790301Y-7210008D01*
X11790301Y-7210008D02*
X11809348Y-7200484D01*
X12114110Y-7400484D02*
X12114110Y-7200484D01*
X12199825Y-7400484D02*
X12199825Y-7295722D01*
X12199825Y-7295722D02*
X12190301Y-7276674D01*
X12190301Y-7276674D02*
X12171253Y-7267150D01*
X12171253Y-7267150D02*
X12142682Y-7267150D01*
X12142682Y-7267150D02*
X12123634Y-7276674D01*
X12123634Y-7276674D02*
X12114110Y-7286198D01*
X12323634Y-7400484D02*
X12304587Y-7390960D01*
X12304587Y-7390960D02*
X12295063Y-7381436D01*
X12295063Y-7381436D02*
X12285539Y-7362388D01*
X12285539Y-7362388D02*
X12285539Y-7305246D01*
X12285539Y-7305246D02*
X12295063Y-7286198D01*
X12295063Y-7286198D02*
X12304587Y-7276674D01*
X12304587Y-7276674D02*
X12323634Y-7267150D01*
X12323634Y-7267150D02*
X12352206Y-7267150D01*
X12352206Y-7267150D02*
X12371253Y-7276674D01*
X12371253Y-7276674D02*
X12380777Y-7286198D01*
X12380777Y-7286198D02*
X12390301Y-7305246D01*
X12390301Y-7305246D02*
X12390301Y-7362388D01*
X12390301Y-7362388D02*
X12380777Y-7381436D01*
X12380777Y-7381436D02*
X12371253Y-7390960D01*
X12371253Y-7390960D02*
X12352206Y-7400484D01*
X12352206Y-7400484D02*
X12323634Y-7400484D01*
X12504587Y-7400484D02*
X12485539Y-7390960D01*
X12485539Y-7390960D02*
X12476015Y-7371912D01*
X12476015Y-7371912D02*
X12476015Y-7200484D01*
X12656968Y-7390960D02*
X12637920Y-7400484D01*
X12637920Y-7400484D02*
X12599825Y-7400484D01*
X12599825Y-7400484D02*
X12580777Y-7390960D01*
X12580777Y-7390960D02*
X12571253Y-7371912D01*
X12571253Y-7371912D02*
X12571253Y-7295722D01*
X12571253Y-7295722D02*
X12580777Y-7276674D01*
X12580777Y-7276674D02*
X12599825Y-7267150D01*
X12599825Y-7267150D02*
X12637920Y-7267150D01*
X12637920Y-7267150D02*
X12656968Y-7276674D01*
X12656968Y-7276674D02*
X12666491Y-7295722D01*
X12666491Y-7295722D02*
X12666491Y-7314769D01*
X12666491Y-7314769D02*
X12571253Y-7333817D01*
X12742682Y-7390960D02*
X12761730Y-7400484D01*
X12761730Y-7400484D02*
X12799825Y-7400484D01*
X12799825Y-7400484D02*
X12818872Y-7390960D01*
X12818872Y-7390960D02*
X12828396Y-7371912D01*
X12828396Y-7371912D02*
X12828396Y-7362388D01*
X12828396Y-7362388D02*
X12818872Y-7343341D01*
X12818872Y-7343341D02*
X12799825Y-7333817D01*
X12799825Y-7333817D02*
X12771253Y-7333817D01*
X12771253Y-7333817D02*
X12752206Y-7324293D01*
X12752206Y-7324293D02*
X12742682Y-7305246D01*
X12742682Y-7305246D02*
X12742682Y-7295722D01*
X12742682Y-7295722D02*
X12752206Y-7276674D01*
X12752206Y-7276674D02*
X12771253Y-7267150D01*
X12771253Y-7267150D02*
X12799825Y-7267150D01*
X12799825Y-7267150D02*
X12818872Y-7276674D01*
X13066492Y-7324293D02*
X13218873Y-7324293D01*
X13142682Y-7400484D02*
X13142682Y-7248103D01*
X13552206Y-7267150D02*
X13552206Y-7400484D01*
X13504587Y-7190960D02*
X13456968Y-7333817D01*
X13456968Y-7333817D02*
X13580777Y-7333817D01*
X13799825Y-7390960D02*
X13818873Y-7400484D01*
X13818873Y-7400484D02*
X13856968Y-7400484D01*
X13856968Y-7400484D02*
X13876015Y-7390960D01*
X13876015Y-7390960D02*
X13885539Y-7371912D01*
X13885539Y-7371912D02*
X13885539Y-7362388D01*
X13885539Y-7362388D02*
X13876015Y-7343341D01*
X13876015Y-7343341D02*
X13856968Y-7333817D01*
X13856968Y-7333817D02*
X13828396Y-7333817D01*
X13828396Y-7333817D02*
X13809349Y-7324293D01*
X13809349Y-7324293D02*
X13799825Y-7305246D01*
X13799825Y-7305246D02*
X13799825Y-7295722D01*
X13799825Y-7295722D02*
X13809349Y-7276674D01*
X13809349Y-7276674D02*
X13828396Y-7267150D01*
X13828396Y-7267150D02*
X13856968Y-7267150D01*
X13856968Y-7267150D02*
X13876015Y-7276674D01*
X13999825Y-7400484D02*
X13980777Y-7390960D01*
X13980777Y-7390960D02*
X13971254Y-7371912D01*
X13971254Y-7371912D02*
X13971254Y-7200484D01*
X14104587Y-7400484D02*
X14085539Y-7390960D01*
X14085539Y-7390960D02*
X14076015Y-7381436D01*
X14076015Y-7381436D02*
X14066492Y-7362388D01*
X14066492Y-7362388D02*
X14066492Y-7305246D01*
X14066492Y-7305246D02*
X14076015Y-7286198D01*
X14076015Y-7286198D02*
X14085539Y-7276674D01*
X14085539Y-7276674D02*
X14104587Y-7267150D01*
X14104587Y-7267150D02*
X14133158Y-7267150D01*
X14133158Y-7267150D02*
X14152206Y-7276674D01*
X14152206Y-7276674D02*
X14161730Y-7286198D01*
X14161730Y-7286198D02*
X14171254Y-7305246D01*
X14171254Y-7305246D02*
X14171254Y-7362388D01*
X14171254Y-7362388D02*
X14161730Y-7381436D01*
X14161730Y-7381436D02*
X14152206Y-7390960D01*
X14152206Y-7390960D02*
X14133158Y-7400484D01*
X14133158Y-7400484D02*
X14104587Y-7400484D01*
X14228396Y-7267150D02*
X14304587Y-7267150D01*
X14256968Y-7200484D02*
X14256968Y-7371912D01*
X14256968Y-7371912D02*
X14266492Y-7390960D01*
X14266492Y-7390960D02*
X14285539Y-7400484D01*
X14285539Y-7400484D02*
X14304587Y-7400484D01*
X14361730Y-7390960D02*
X14380777Y-7400484D01*
X14380777Y-7400484D02*
X14418873Y-7400484D01*
X14418873Y-7400484D02*
X14437920Y-7390960D01*
X14437920Y-7390960D02*
X14447444Y-7371912D01*
X14447444Y-7371912D02*
X14447444Y-7362388D01*
X14447444Y-7362388D02*
X14437920Y-7343341D01*
X14437920Y-7343341D02*
X14418873Y-7333817D01*
X14418873Y-7333817D02*
X14390301Y-7333817D01*
X14390301Y-7333817D02*
X14371254Y-7324293D01*
X14371254Y-7324293D02*
X14361730Y-7305246D01*
X14361730Y-7305246D02*
X14361730Y-7295722D01*
X14361730Y-7295722D02*
X14371254Y-7276674D01*
X14371254Y-7276674D02*
X14390301Y-7267150D01*
X14390301Y-7267150D02*
X14418873Y-7267150D01*
X14418873Y-7267150D02*
X14437920Y-7276674D01*
X14514111Y-7476674D02*
X14523635Y-7467150D01*
X14523635Y-7467150D02*
X14542682Y-7438579D01*
X14542682Y-7438579D02*
X14552206Y-7419531D01*
X14552206Y-7419531D02*
X14561730Y-7390960D01*
X14561730Y-7390960D02*
X14571254Y-7343341D01*
X14571254Y-7343341D02*
X14571254Y-7305246D01*
X14571254Y-7305246D02*
X14561730Y-7257627D01*
X14561730Y-7257627D02*
X14552206Y-7229055D01*
X14552206Y-7229055D02*
X14542682Y-7210008D01*
X14542682Y-7210008D02*
X14523635Y-7181436D01*
X14523635Y-7181436D02*
X14514111Y-7171912D01*
D10*
X8070000Y-7523000D02*
X8070000Y-7623000D01*
X8020000Y-7573000D02*
X8120000Y-7573000D01*
D11*
X8485539Y-7664484D02*
X8371253Y-7664484D01*
X8428396Y-7664484D02*
X8428396Y-7464484D01*
X8428396Y-7464484D02*
X8409348Y-7493055D01*
X8409348Y-7493055D02*
X8390301Y-7512103D01*
X8390301Y-7512103D02*
X8371253Y-7521627D01*
X8571253Y-7645436D02*
X8580777Y-7654960D01*
X8580777Y-7654960D02*
X8571253Y-7664484D01*
X8571253Y-7664484D02*
X8561729Y-7654960D01*
X8561729Y-7654960D02*
X8571253Y-7645436D01*
X8571253Y-7645436D02*
X8571253Y-7664484D01*
X8704586Y-7464484D02*
X8723634Y-7464484D01*
X8723634Y-7464484D02*
X8742682Y-7474008D01*
X8742682Y-7474008D02*
X8752205Y-7483531D01*
X8752205Y-7483531D02*
X8761729Y-7502579D01*
X8761729Y-7502579D02*
X8771253Y-7540674D01*
X8771253Y-7540674D02*
X8771253Y-7588293D01*
X8771253Y-7588293D02*
X8761729Y-7626388D01*
X8761729Y-7626388D02*
X8752205Y-7645436D01*
X8752205Y-7645436D02*
X8742682Y-7654960D01*
X8742682Y-7654960D02*
X8723634Y-7664484D01*
X8723634Y-7664484D02*
X8704586Y-7664484D01*
X8704586Y-7664484D02*
X8685539Y-7654960D01*
X8685539Y-7654960D02*
X8676015Y-7645436D01*
X8676015Y-7645436D02*
X8666491Y-7626388D01*
X8666491Y-7626388D02*
X8656967Y-7588293D01*
X8656967Y-7588293D02*
X8656967Y-7540674D01*
X8656967Y-7540674D02*
X8666491Y-7502579D01*
X8666491Y-7502579D02*
X8676015Y-7483531D01*
X8676015Y-7483531D02*
X8685539Y-7474008D01*
X8685539Y-7474008D02*
X8704586Y-7464484D01*
X8895063Y-7464484D02*
X8914110Y-7464484D01*
X8914110Y-7464484D02*
X8933158Y-7474008D01*
X8933158Y-7474008D02*
X8942682Y-7483531D01*
X8942682Y-7483531D02*
X8952205Y-7502579D01*
X8952205Y-7502579D02*
X8961729Y-7540674D01*
X8961729Y-7540674D02*
X8961729Y-7588293D01*
X8961729Y-7588293D02*
X8952205Y-7626388D01*
X8952205Y-7626388D02*
X8942682Y-7645436D01*
X8942682Y-7645436D02*
X8933158Y-7654960D01*
X8933158Y-7654960D02*
X8914110Y-7664484D01*
X8914110Y-7664484D02*
X8895063Y-7664484D01*
X8895063Y-7664484D02*
X8876015Y-7654960D01*
X8876015Y-7654960D02*
X8866491Y-7645436D01*
X8866491Y-7645436D02*
X8856967Y-7626388D01*
X8856967Y-7626388D02*
X8847444Y-7588293D01*
X8847444Y-7588293D02*
X8847444Y-7540674D01*
X8847444Y-7540674D02*
X8856967Y-7502579D01*
X8856967Y-7502579D02*
X8866491Y-7483531D01*
X8866491Y-7483531D02*
X8876015Y-7474008D01*
X8876015Y-7474008D02*
X8895063Y-7464484D01*
X9085539Y-7464484D02*
X9104586Y-7464484D01*
X9104586Y-7464484D02*
X9123634Y-7474008D01*
X9123634Y-7474008D02*
X9133158Y-7483531D01*
X9133158Y-7483531D02*
X9142682Y-7502579D01*
X9142682Y-7502579D02*
X9152205Y-7540674D01*
X9152205Y-7540674D02*
X9152205Y-7588293D01*
X9152205Y-7588293D02*
X9142682Y-7626388D01*
X9142682Y-7626388D02*
X9133158Y-7645436D01*
X9133158Y-7645436D02*
X9123634Y-7654960D01*
X9123634Y-7654960D02*
X9104586Y-7664484D01*
X9104586Y-7664484D02*
X9085539Y-7664484D01*
X9085539Y-7664484D02*
X9066491Y-7654960D01*
X9066491Y-7654960D02*
X9056967Y-7645436D01*
X9056967Y-7645436D02*
X9047444Y-7626388D01*
X9047444Y-7626388D02*
X9037920Y-7588293D01*
X9037920Y-7588293D02*
X9037920Y-7540674D01*
X9037920Y-7540674D02*
X9047444Y-7502579D01*
X9047444Y-7502579D02*
X9056967Y-7483531D01*
X9056967Y-7483531D02*
X9066491Y-7474008D01*
X9066491Y-7474008D02*
X9085539Y-7464484D01*
X9237920Y-7664484D02*
X9237920Y-7531150D01*
X9237920Y-7550198D02*
X9247444Y-7540674D01*
X9247444Y-7540674D02*
X9266491Y-7531150D01*
X9266491Y-7531150D02*
X9295063Y-7531150D01*
X9295063Y-7531150D02*
X9314110Y-7540674D01*
X9314110Y-7540674D02*
X9323634Y-7559722D01*
X9323634Y-7559722D02*
X9323634Y-7664484D01*
X9323634Y-7559722D02*
X9333158Y-7540674D01*
X9333158Y-7540674D02*
X9352205Y-7531150D01*
X9352205Y-7531150D02*
X9380777Y-7531150D01*
X9380777Y-7531150D02*
X9399825Y-7540674D01*
X9399825Y-7540674D02*
X9409348Y-7559722D01*
X9409348Y-7559722D02*
X9409348Y-7664484D01*
X9504586Y-7664484D02*
X9504586Y-7531150D01*
X9504586Y-7550198D02*
X9514110Y-7540674D01*
X9514110Y-7540674D02*
X9533158Y-7531150D01*
X9533158Y-7531150D02*
X9561729Y-7531150D01*
X9561729Y-7531150D02*
X9580777Y-7540674D01*
X9580777Y-7540674D02*
X9590301Y-7559722D01*
X9590301Y-7559722D02*
X9590301Y-7664484D01*
X9590301Y-7559722D02*
X9599825Y-7540674D01*
X9599825Y-7540674D02*
X9618872Y-7531150D01*
X9618872Y-7531150D02*
X9647444Y-7531150D01*
X9647444Y-7531150D02*
X9666491Y-7540674D01*
X9666491Y-7540674D02*
X9676015Y-7559722D01*
X9676015Y-7559722D02*
X9676015Y-7664484D01*
X10066491Y-7454960D02*
X9895063Y-7712103D01*
X10323634Y-7464484D02*
X10342682Y-7464484D01*
X10342682Y-7464484D02*
X10361729Y-7474008D01*
X10361729Y-7474008D02*
X10371253Y-7483531D01*
X10371253Y-7483531D02*
X10380777Y-7502579D01*
X10380777Y-7502579D02*
X10390301Y-7540674D01*
X10390301Y-7540674D02*
X10390301Y-7588293D01*
X10390301Y-7588293D02*
X10380777Y-7626388D01*
X10380777Y-7626388D02*
X10371253Y-7645436D01*
X10371253Y-7645436D02*
X10361729Y-7654960D01*
X10361729Y-7654960D02*
X10342682Y-7664484D01*
X10342682Y-7664484D02*
X10323634Y-7664484D01*
X10323634Y-7664484D02*
X10304587Y-7654960D01*
X10304587Y-7654960D02*
X10295063Y-7645436D01*
X10295063Y-7645436D02*
X10285539Y-7626388D01*
X10285539Y-7626388D02*
X10276015Y-7588293D01*
X10276015Y-7588293D02*
X10276015Y-7540674D01*
X10276015Y-7540674D02*
X10285539Y-7502579D01*
X10285539Y-7502579D02*
X10295063Y-7483531D01*
X10295063Y-7483531D02*
X10304587Y-7474008D01*
X10304587Y-7474008D02*
X10323634Y-7464484D01*
X10476015Y-7645436D02*
X10485539Y-7654960D01*
X10485539Y-7654960D02*
X10476015Y-7664484D01*
X10476015Y-7664484D02*
X10466491Y-7654960D01*
X10466491Y-7654960D02*
X10476015Y-7645436D01*
X10476015Y-7645436D02*
X10476015Y-7664484D01*
X10609348Y-7464484D02*
X10628396Y-7464484D01*
X10628396Y-7464484D02*
X10647444Y-7474008D01*
X10647444Y-7474008D02*
X10656968Y-7483531D01*
X10656968Y-7483531D02*
X10666491Y-7502579D01*
X10666491Y-7502579D02*
X10676015Y-7540674D01*
X10676015Y-7540674D02*
X10676015Y-7588293D01*
X10676015Y-7588293D02*
X10666491Y-7626388D01*
X10666491Y-7626388D02*
X10656968Y-7645436D01*
X10656968Y-7645436D02*
X10647444Y-7654960D01*
X10647444Y-7654960D02*
X10628396Y-7664484D01*
X10628396Y-7664484D02*
X10609348Y-7664484D01*
X10609348Y-7664484D02*
X10590301Y-7654960D01*
X10590301Y-7654960D02*
X10580777Y-7645436D01*
X10580777Y-7645436D02*
X10571253Y-7626388D01*
X10571253Y-7626388D02*
X10561729Y-7588293D01*
X10561729Y-7588293D02*
X10561729Y-7540674D01*
X10561729Y-7540674D02*
X10571253Y-7502579D01*
X10571253Y-7502579D02*
X10580777Y-7483531D01*
X10580777Y-7483531D02*
X10590301Y-7474008D01*
X10590301Y-7474008D02*
X10609348Y-7464484D01*
X10742682Y-7464484D02*
X10866491Y-7464484D01*
X10866491Y-7464484D02*
X10799825Y-7540674D01*
X10799825Y-7540674D02*
X10828396Y-7540674D01*
X10828396Y-7540674D02*
X10847444Y-7550198D01*
X10847444Y-7550198D02*
X10856968Y-7559722D01*
X10856968Y-7559722D02*
X10866491Y-7578769D01*
X10866491Y-7578769D02*
X10866491Y-7626388D01*
X10866491Y-7626388D02*
X10856968Y-7645436D01*
X10856968Y-7645436D02*
X10847444Y-7654960D01*
X10847444Y-7654960D02*
X10828396Y-7664484D01*
X10828396Y-7664484D02*
X10771253Y-7664484D01*
X10771253Y-7664484D02*
X10752206Y-7654960D01*
X10752206Y-7654960D02*
X10742682Y-7645436D01*
X10961729Y-7664484D02*
X10999825Y-7664484D01*
X10999825Y-7664484D02*
X11018872Y-7654960D01*
X11018872Y-7654960D02*
X11028396Y-7645436D01*
X11028396Y-7645436D02*
X11047444Y-7616865D01*
X11047444Y-7616865D02*
X11056968Y-7578769D01*
X11056968Y-7578769D02*
X11056968Y-7502579D01*
X11056968Y-7502579D02*
X11047444Y-7483531D01*
X11047444Y-7483531D02*
X11037920Y-7474008D01*
X11037920Y-7474008D02*
X11018872Y-7464484D01*
X11018872Y-7464484D02*
X10980777Y-7464484D01*
X10980777Y-7464484D02*
X10961729Y-7474008D01*
X10961729Y-7474008D02*
X10952206Y-7483531D01*
X10952206Y-7483531D02*
X10942682Y-7502579D01*
X10942682Y-7502579D02*
X10942682Y-7550198D01*
X10942682Y-7550198D02*
X10952206Y-7569246D01*
X10952206Y-7569246D02*
X10961729Y-7578769D01*
X10961729Y-7578769D02*
X10980777Y-7588293D01*
X10980777Y-7588293D02*
X11018872Y-7588293D01*
X11018872Y-7588293D02*
X11037920Y-7578769D01*
X11037920Y-7578769D02*
X11047444Y-7569246D01*
X11047444Y-7569246D02*
X11056968Y-7550198D01*
X11228396Y-7531150D02*
X11228396Y-7664484D01*
X11180777Y-7454960D02*
X11133158Y-7597817D01*
X11133158Y-7597817D02*
X11256967Y-7597817D01*
X11323634Y-7464484D02*
X11323634Y-7502579D01*
X11399825Y-7464484D02*
X11399825Y-7502579D01*
X11695063Y-7740674D02*
X11685539Y-7731150D01*
X11685539Y-7731150D02*
X11666491Y-7702579D01*
X11666491Y-7702579D02*
X11656968Y-7683531D01*
X11656968Y-7683531D02*
X11647444Y-7654960D01*
X11647444Y-7654960D02*
X11637920Y-7607341D01*
X11637920Y-7607341D02*
X11637920Y-7569246D01*
X11637920Y-7569246D02*
X11647444Y-7521627D01*
X11647444Y-7521627D02*
X11656968Y-7493055D01*
X11656968Y-7493055D02*
X11666491Y-7474008D01*
X11666491Y-7474008D02*
X11685539Y-7445436D01*
X11685539Y-7445436D02*
X11695063Y-7435912D01*
X11856968Y-7531150D02*
X11856968Y-7664484D01*
X11809348Y-7454960D02*
X11761729Y-7597817D01*
X11761729Y-7597817D02*
X11885539Y-7597817D01*
X12114110Y-7664484D02*
X12114110Y-7464484D01*
X12199825Y-7664484D02*
X12199825Y-7559722D01*
X12199825Y-7559722D02*
X12190301Y-7540674D01*
X12190301Y-7540674D02*
X12171253Y-7531150D01*
X12171253Y-7531150D02*
X12142682Y-7531150D01*
X12142682Y-7531150D02*
X12123634Y-7540674D01*
X12123634Y-7540674D02*
X12114110Y-7550198D01*
X12323634Y-7664484D02*
X12304587Y-7654960D01*
X12304587Y-7654960D02*
X12295063Y-7645436D01*
X12295063Y-7645436D02*
X12285539Y-7626388D01*
X12285539Y-7626388D02*
X12285539Y-7569246D01*
X12285539Y-7569246D02*
X12295063Y-7550198D01*
X12295063Y-7550198D02*
X12304587Y-7540674D01*
X12304587Y-7540674D02*
X12323634Y-7531150D01*
X12323634Y-7531150D02*
X12352206Y-7531150D01*
X12352206Y-7531150D02*
X12371253Y-7540674D01*
X12371253Y-7540674D02*
X12380777Y-7550198D01*
X12380777Y-7550198D02*
X12390301Y-7569246D01*
X12390301Y-7569246D02*
X12390301Y-7626388D01*
X12390301Y-7626388D02*
X12380777Y-7645436D01*
X12380777Y-7645436D02*
X12371253Y-7654960D01*
X12371253Y-7654960D02*
X12352206Y-7664484D01*
X12352206Y-7664484D02*
X12323634Y-7664484D01*
X12504587Y-7664484D02*
X12485539Y-7654960D01*
X12485539Y-7654960D02*
X12476015Y-7635912D01*
X12476015Y-7635912D02*
X12476015Y-7464484D01*
X12656968Y-7654960D02*
X12637920Y-7664484D01*
X12637920Y-7664484D02*
X12599825Y-7664484D01*
X12599825Y-7664484D02*
X12580777Y-7654960D01*
X12580777Y-7654960D02*
X12571253Y-7635912D01*
X12571253Y-7635912D02*
X12571253Y-7559722D01*
X12571253Y-7559722D02*
X12580777Y-7540674D01*
X12580777Y-7540674D02*
X12599825Y-7531150D01*
X12599825Y-7531150D02*
X12637920Y-7531150D01*
X12637920Y-7531150D02*
X12656968Y-7540674D01*
X12656968Y-7540674D02*
X12666491Y-7559722D01*
X12666491Y-7559722D02*
X12666491Y-7578769D01*
X12666491Y-7578769D02*
X12571253Y-7597817D01*
X12742682Y-7654960D02*
X12761730Y-7664484D01*
X12761730Y-7664484D02*
X12799825Y-7664484D01*
X12799825Y-7664484D02*
X12818872Y-7654960D01*
X12818872Y-7654960D02*
X12828396Y-7635912D01*
X12828396Y-7635912D02*
X12828396Y-7626388D01*
X12828396Y-7626388D02*
X12818872Y-7607341D01*
X12818872Y-7607341D02*
X12799825Y-7597817D01*
X12799825Y-7597817D02*
X12771253Y-7597817D01*
X12771253Y-7597817D02*
X12752206Y-7588293D01*
X12752206Y-7588293D02*
X12742682Y-7569246D01*
X12742682Y-7569246D02*
X12742682Y-7559722D01*
X12742682Y-7559722D02*
X12752206Y-7540674D01*
X12752206Y-7540674D02*
X12771253Y-7531150D01*
X12771253Y-7531150D02*
X12799825Y-7531150D01*
X12799825Y-7531150D02*
X12818872Y-7540674D01*
X12895063Y-7740674D02*
X12904587Y-7731150D01*
X12904587Y-7731150D02*
X12923634Y-7702579D01*
X12923634Y-7702579D02*
X12933158Y-7683531D01*
X12933158Y-7683531D02*
X12942682Y-7654960D01*
X12942682Y-7654960D02*
X12952206Y-7607341D01*
X12952206Y-7607341D02*
X12952206Y-7569246D01*
X12952206Y-7569246D02*
X12942682Y-7521627D01*
X12942682Y-7521627D02*
X12933158Y-7493055D01*
X12933158Y-7493055D02*
X12923634Y-7474008D01*
X12923634Y-7474008D02*
X12904587Y-7445436D01*
X12904587Y-7445436D02*
X12895063Y-7435912D01*
M02*
